<svg width="50" height="50" viewBox="0 0 50 50" fill="none" xmlns="http://www.w3.org/2000/svg">
<g id="Group 512">
<rect id="Rectangle 339" width="50" height="50" rx="15" fill="url(#paint0_linear_1301_664)"/>
<g id="Group">
<path id="Vector" d="M25.1291 16.4746C20.5765 16.4746 16.8721 19.9595 16.8721 24.2423C16.8721 28.525 20.5765 32.0099 25.1291 32.0099C29.6818 32.0099 33.3862 28.525 33.3862 24.2423C33.3862 19.9595 29.6818 16.4746 25.1291 16.4746ZM25.1291 29.498C22.0481 29.498 19.5447 27.1406 19.5447 24.2423C19.5447 21.3439 22.0506 18.9888 25.1291 18.9888C28.2077 18.9888 30.7136 21.3462 30.7136 24.2423C30.7136 27.1384 28.2077 29.498 25.1291 29.498Z" fill="white"/>
<path id="Vector_2" d="M34.1911 13.6572C33.0288 13.6572 32.084 14.5438 32.084 15.6395C32.084 16.7352 33.0264 17.6218 34.1911 17.6218C35.3559 17.6218 36.2983 16.7352 36.2983 15.6395C36.2983 14.5438 35.3559 13.6572 34.1911 13.6572Z" fill="white"/>
<path id="Vector_3" d="M33.5042 7.98047H16.7533C11.8406 7.98047 7.84375 11.7404 7.84375 16.3619V32.12C7.84375 36.7415 11.8406 40.5014 16.7533 40.5014H33.5042C38.4169 40.5014 42.4137 36.7415 42.4137 32.12V16.3619C42.4137 11.7404 38.4169 7.98047 33.5042 7.98047ZM39.7411 32.12C39.7411 35.3548 36.9429 37.9895 33.5018 37.9895H16.7508C13.3122 37.9895 10.5115 35.3571 10.5115 32.12V16.3619C10.5115 13.1271 13.3098 10.4924 16.7508 10.4924H33.5018C36.9404 10.4924 39.7411 13.1248 39.7411 16.3619V32.12Z" fill="white"/>
</g>
</g>
<defs>
<linearGradient id="paint0_linear_1301_664" x1="-1.38889" y1="-67.1512" x2="69.0141" y2="-55.5333" gradientUnits="userSpaceOnUse">
<stop offset="0.17048" stop-color="#72318A"/>
<stop offset="0.511401" stop-color="#D0504E"/>
<stop offset="1" stop-color="#FDB933"/>
</linearGradient>
</defs>
</svg>
