<svg width="50" height="50" viewBox="0 0 50 50" fill="none" xmlns="http://www.w3.org/2000/svg">
<g id="Group 511">
<path id="Vector" d="M37.1121 0H12.8879C5.77012 0 0 5.77012 0 12.8879V37.1121C0 44.2299 5.77012 50 12.8879 50H37.1121C44.2299 50 50 44.2299 50 37.1121V12.8879C50 5.77012 44.2299 0 37.1121 0Z" fill="url(#paint0_linear_1301_679)"/>
<path id="Vector_2" d="M36.909 16.1554H40.8046V8.8877H36.909C32.761 8.8877 30.2745 10.624 28.9215 12.0775C25.8976 15.3282 25.9186 19.7823 25.9653 20.7988V23.8671H18.6836V31.1348H25.9653V50.0005H33.233V31.1348H40.8022V23.8671H33.233V20.6983L33.2401 20.6025L33.226 20.4506C33.2003 19.8454 33.3312 17.9899 34.2589 17.0107C34.4599 16.7981 35.0698 16.1554 36.909 16.1554Z" fill="white"/>
</g>
<defs>
<linearGradient id="paint0_linear_1301_679" x1="25" y1="3.13376" x2="25" y2="42.765" gradientUnits="userSpaceOnUse">
<stop stop-color="#0093D8"/>
<stop offset="0.88" stop-color="#0057A8"/>
</linearGradient>
</defs>
</svg>
