<svg width="81" height="81" viewBox="0 0 81 81" fill="none" xmlns="http://www.w3.org/2000/svg">
<g id="Illustration" clip-path="url(#clip0_1301_596)">
<g id="Group">
<path id="Vector" d="M69.1384 69.1514C84.9547 53.353 84.9547 27.7388 69.1384 11.9404C53.3221 -3.85801 27.6788 -3.85801 11.8625 11.9404C-3.95375 27.7388 -3.95375 53.353 11.8625 69.1514C27.6788 84.9498 53.3221 84.9498 69.1384 69.1514Z" fill="#1E656D"/>
<g id="Group_2">
<path id="Vector_2" d="M40.5013 75.0727C59.5914 75.0727 75.067 59.6146 75.067 40.5461C75.067 21.4776 59.5914 6.01953 40.5013 6.01953C21.4111 6.01953 5.93555 21.4776 5.93555 40.5461C5.93555 59.6146 21.4111 75.0727 40.5013 75.0727Z" fill="#ACDBDD"/>
<path id="Vector_3" d="M40.5008 75.9735C31.027 75.9735 22.1204 72.2883 15.4215 65.597C8.72258 58.9057 5.0332 50.0091 5.0332 40.5461C5.0332 31.083 8.72258 22.1865 15.4215 15.4952C22.1204 8.80385 31.027 5.11865 40.5008 5.11865C49.9746 5.11865 58.8812 8.80385 65.5801 15.4952C72.279 22.1865 75.9684 31.083 75.9684 40.5461C75.9684 50.0091 72.279 58.9057 65.5801 65.597C58.8812 72.2883 49.9746 75.9735 40.5008 75.9735ZM40.5008 6.9209C21.939 6.9209 6.8375 22.0048 6.8375 40.5461C6.8375 59.0874 21.9385 74.1713 40.5008 74.1713C59.0631 74.1713 74.1641 59.0874 74.1641 40.5461C74.1641 22.0048 59.0631 6.9209 40.5008 6.9209Z" fill="white"/>
</g>
<g id="Group_3">
<path id="Vector_4" d="M55.4014 55.4298C63.6308 47.2096 63.6308 33.8822 55.4014 25.662C47.172 17.4419 33.8294 17.4419 25.5999 25.662C17.3705 33.8822 17.3705 47.2096 25.5999 55.4298C33.8294 63.6499 47.172 63.6499 55.4014 55.4298Z" fill="#67BEC2"/>
<path id="Vector_5" d="M40.5006 62.4959C28.3833 62.4959 18.5254 52.6492 18.5254 40.5456C18.5254 28.442 28.3833 18.5952 40.5006 18.5952C52.6179 18.5952 62.4759 28.442 62.4759 40.5456C62.4759 52.6492 52.6179 62.4959 40.5006 62.4959ZM40.5006 20.398C29.3786 20.398 20.3302 29.4362 20.3302 40.5456C20.3302 51.655 29.3786 60.6931 40.5006 60.6931C51.6226 60.6931 60.671 51.655 60.671 40.5456C60.671 29.4362 51.6226 20.398 40.5006 20.398Z" fill="white"/>
</g>
<g id="Group_4">
<path id="Vector_6" d="M46.2738 46.3123C49.4621 43.1276 49.4621 37.9642 46.2738 34.7795C43.0855 31.5949 37.9163 31.5949 34.728 34.7795C31.5397 37.9642 31.5397 43.1276 34.728 46.3123C37.9163 49.4969 43.0855 49.4969 46.2738 46.3123Z" fill="#1E656D"/>
<path id="Vector_7" d="M40.5011 49.6023C35.5015 49.6023 31.4346 45.54 31.4346 40.546C31.4346 35.5521 35.5015 31.4897 40.5011 31.4897C45.5007 31.4897 49.5676 35.5526 49.5676 40.546C49.5676 45.5394 45.5007 49.6023 40.5011 49.6023ZM40.5011 33.292C36.4968 33.292 33.2394 36.5463 33.2394 40.5455C33.2394 44.5447 36.4968 47.7989 40.5011 47.7989C44.5054 47.7989 47.7628 44.5452 47.7628 40.5455C47.7628 36.5457 44.5054 33.292 40.5011 33.292Z" fill="white"/>
</g>
</g>
<g id="Group_5">
<path id="Vector_8" d="M45.3531 35.0367L46.1738 35.7988L75.0624 4.75703L74.2417 3.99492L45.3531 35.0367Z" fill="url(#paint0_linear_1301_596)"/>
<path id="Vector_9" d="M45.8402 33.1113C46.2777 32.6409 48.4975 34.7017 48.06 35.1721L40.3455 41.6993C40.0602 41.9403 39.6662 41.5747 39.8866 41.2728L45.8402 33.1113Z" fill="#F62A00"/>
<path id="Vector_10" d="M75.0399 4.77637L79.0881 5.02944L73.7533 10.7628C72.0051 12.6414 69.5061 13.6378 66.9434 13.4775L75.0399 4.77637Z" fill="#F62A00"/>
<path id="Vector_11" d="M74.2202 4.01458L73.6717 0L68.3369 5.73339C66.5887 7.61195 65.7764 10.1745 66.1237 12.7157L74.2202 4.01458Z" fill="#F62A00"/>
</g>
</g>
<defs>
<linearGradient id="paint0_linear_1301_596" x1="31.3987" y1="38.7737" x2="62.7361" y2="18.1957" gradientUnits="userSpaceOnUse">
<stop stop-color="#2B3582"/>
<stop offset="1" stop-color="#150E42"/>
</linearGradient>
<clipPath id="clip0_1301_596">
<rect width="81.0003" height="81.0003" fill="white"/>
</clipPath>
</defs>
</svg>
