<svg width="89" height="104" viewBox="0 0 89 104" fill="none" xmlns="http://www.w3.org/2000/svg">
<g id="Vector">
<path d="M49.1168 5.03705V62.5604L10.2583 83.4539V25.9432L49.1168 5.03705Z" fill="#227A94"/>
<path d="M10.2583 25.9432V83.4539C10.1603 83.5107 10.0486 83.5455 9.9235 83.5707C9.67659 83.6276 9.43984 83.6276 9.19293 83.5707C9.08132 83.5486 8.95618 83.5139 8.85809 83.4539L0.913238 79.1685C0.64266 79.0169 0.629131 78.8337 0.629131 78.799V21.3545C0.666336 21.4809 0.791478 21.5851 0.913238 21.6546L8.85809 25.94C8.95618 25.9874 9.08132 26.0316 9.19293 26.0568C9.43984 26.1042 9.67659 26.1042 9.9235 26.0568C10.0486 26.0347 10.1603 25.9874 10.2583 25.94V25.9432Z" fill="#1E656D"/>
<path d="M47.7064 5.29285L9.80173 25.6905C9.76453 25.7031 9.72733 25.7126 9.67659 25.7253C9.60218 25.7474 9.51425 25.7474 9.43984 25.7253C9.40263 25.7126 9.36543 25.7031 9.32822 25.6905L8.63487 25.321L1.62012 21.5314C12.91 15.4427 28.4784 7.09608 39.775 1.00741C39.9374 1.08952 40.0828 1.1811 40.2316 1.25058V1.26321C42.5214 2.498 44.5237 3.57488 46.7898 4.79704C47.0874 4.9581 47.3952 5.11915 47.7064 5.29285Z" fill="white"/>
<path d="M40.2316 0.252642V1.24742C40.0828 1.17794 39.934 1.08636 39.775 1.00425C28.4784 7.09292 12.9066 15.4396 1.62351 21.5282L1.38675 21.4019C1.36307 21.3893 1.33602 21.3798 1.31234 21.3545C1.29881 21.3198 1.28867 21.2851 1.28867 21.2503C1.3022 21.203 1.34955 21.1682 1.38675 21.1461L40.2316 0.252642Z" fill="#E4E4E5"/>
<path d="M39.775 0L40.2316 0.252642L1.38675 21.1461C1.34955 21.1682 1.29881 21.203 1.28867 21.2503C1.28867 21.2851 1.30219 21.3198 1.31234 21.3545C1.33602 21.3767 1.36307 21.3893 1.38675 21.4019L1.62351 21.5282L9.3316 25.6874C9.36881 25.7 9.40601 25.7095 9.44322 25.7221C9.51763 25.7442 9.60557 25.7442 9.67659 25.7221C9.72733 25.7095 9.76453 25.7 9.80173 25.6874L47.7064 5.29285H47.7199L48.6466 4.7844L49.1168 5.03705L10.2583 25.9432C10.1603 25.9905 10.0486 26.0347 9.9235 26.06C9.67659 26.1074 9.43984 26.1074 9.19293 26.06C9.08132 26.0379 8.95618 25.9905 8.85809 25.9432L0.913238 21.6577C0.788096 21.5882 0.666336 21.484 0.629131 21.3577C0.605456 21.2535 0.64266 21.1366 0.717069 21.0577C0.767803 20.9882 0.842212 20.9408 0.916621 20.8966L39.775 0Z" fill="#1E656D"/>
<path d="M10.2583 25.9432C15.9168 22.7504 21.7342 19.8134 27.4333 16.6838C33.1865 13.6427 43.323 8.01822 49.1168 5.0402C43.4583 8.23612 33.2101 13.6806 27.5111 16.8102C21.7579 19.8513 16.0521 22.9651 10.2583 25.9463V25.9432Z" fill="white"/>
<path d="M1.33263 21.1714C6.9911 17.9786 12.8221 15.0417 18.5211 11.9121C24.2709 8.87089 34.3973 3.24645 40.1877 0.268432C34.5292 3.46435 24.2811 8.90878 18.582 12.0384C12.8288 15.0796 7.12301 18.1934 1.32925 21.1745L1.33263 21.1714Z" fill="white"/>
<path d="M47.7064 5.29285L9.80173 25.6905C9.76453 25.7031 9.72733 25.7126 9.67659 25.7253C9.60218 25.7474 9.51425 25.7474 9.43984 25.7253C9.40263 25.7126 9.36543 25.7031 9.32822 25.6905L8.63487 25.321L46.7898 4.79704C47.0874 4.9581 47.3952 5.11915 47.7064 5.29285Z" fill="#E4E4E5"/>
<path d="M58.9692 12.7679V65.6679L18.4061 87.4993V34.6088L58.9692 12.7679Z" fill="#ACDBDD"/>
<path d="M18.4061 34.6088V87.4993C18.308 87.5562 18.1964 87.5909 18.0713 87.6162C17.8244 87.673 17.5876 87.673 17.3407 87.6162C17.2291 87.5941 17.104 87.5593 17.0059 87.4993L11.2933 84.4518C11.0227 84.3003 11.0092 84.1171 11.0092 84.0824V31.2581C11.0464 31.3844 11.1715 31.4886 11.2933 31.5581L17.0059 34.6056C17.104 34.653 17.2291 34.6972 17.3407 34.7225C17.5876 34.7698 17.8244 34.7698 18.0713 34.7225C18.1964 34.7004 18.308 34.653 18.4061 34.6056V34.6088Z" fill="#67BEC2"/>
<path d="M57.5554 13.0237L17.9428 34.3561C17.9056 34.3688 17.8684 34.3782 17.8176 34.3909C17.7432 34.413 17.6553 34.413 17.5809 34.3909C17.5437 34.3782 17.5065 34.3688 17.4692 34.3561L16.529 33.8477L11.9934 31.435C12.3655 31.2392 12.7341 31.0307 13.1062 30.8349C24.0071 24.9547 40.925 15.8659 51.8496 9.97619C52.0119 10.0583 52.1574 10.1499 52.3062 10.2194V10.232C54.5216 11.4226 54.2205 11.2236 56.3852 12.3921C56.7674 12.6005 57.1529 12.8089 57.5487 13.0268L57.5554 13.0237Z" fill="#E4E4E5"/>
<path d="M52.3163 9.22143V10.2162C52.1675 10.1467 52.0187 10.0551 51.8597 9.97303C40.5631 16.0617 23.2867 25.3463 12.0002 31.435L11.7634 31.3086C11.7398 31.296 11.7127 31.2865 11.689 31.2613C11.6755 31.2265 11.6653 31.1918 11.6653 31.1571C11.6789 31.1097 11.7262 31.0749 11.7634 31.0528L52.3163 9.22143Z" fill="#ACDBDD"/>
<path d="M51.8564 8.96563L52.313 9.21827L11.7634 31.0528C11.7262 31.0749 11.6755 31.1097 11.6653 31.1571C11.6653 31.1918 11.6789 31.2265 11.689 31.2613C11.7127 31.2834 11.7398 31.296 11.7634 31.3086L12.0002 31.435L17.476 34.3561C17.5132 34.3688 17.5504 34.3782 17.5876 34.3909C17.662 34.413 17.75 34.413 17.8244 34.3909C17.8751 34.3782 17.9123 34.3688 17.9495 34.3561L57.5622 13.0237H57.5757L58.5024 12.5152L58.9726 12.7679L18.4061 34.6088C18.308 34.6561 18.1964 34.7004 18.0713 34.7256C17.8244 34.773 17.5876 34.773 17.3407 34.7256C17.2291 34.7035 17.104 34.6561 17.0059 34.6088L11.2933 31.5613C11.1682 31.4918 11.0464 31.3876 11.0092 31.2613C10.9855 31.157 11.0227 31.0434 11.0971 30.9613C11.1479 30.8918 11.2223 30.8444 11.2967 30.8002L51.8564 8.96563Z" fill="#67BEC2"/>
<path d="M17.0059 34.6088C14.3982 33.1182 13.9822 32.9255 11.2933 31.5613C13.901 33.0519 14.317 33.2445 17.0059 34.6088Z" fill="#4761C9"/>
<path d="M57.5554 13.0237L17.9428 34.3561C17.9056 34.3688 17.8684 34.3782 17.8176 34.3909C17.7432 34.413 17.6553 34.413 17.5809 34.3909C17.5437 34.3782 17.5065 34.3688 17.4692 34.3561L16.529 33.8477L56.3885 12.3858C56.7707 12.5942 57.1563 12.8026 57.552 13.0205L57.5554 13.0237Z" fill="#E6E9FF"/>
<path d="M58.9692 12.7679C53.3175 15.9385 41.3782 22.3177 35.6927 25.4347C29.9598 28.4727 24.2641 31.5771 18.4974 34.5582C24.1491 31.3844 29.8719 28.3306 35.5574 25.2136C41.2903 22.1756 53.2025 15.7491 58.9692 12.7647V12.7679Z" fill="#4761C9"/>
<path d="M52.3163 9.22143C46.6646 12.3921 34.7254 18.7713 29.0399 21.8883C23.307 24.9263 17.6113 28.0306 11.8446 31.0118C17.4963 27.838 23.219 24.7842 28.9046 21.6672C34.6374 18.6292 46.5497 12.2026 52.3163 9.21827V9.22143Z" fill="#4761C9"/>
<path d="M88.2187 73.0924C88.3303 73.1524 88.4284 73.2282 88.5197 73.3198C88.6956 73.503 88.8241 73.7114 88.9053 73.9483C88.9459 74.0619 88.9662 74.1819 88.9662 74.3019V80.7601C88.9662 80.8043 88.9662 80.8485 88.956 80.8896C88.9425 80.978 88.9087 81.0538 88.8478 81.1264C88.8207 81.1612 88.7835 81.1928 88.743 81.2117C74.8927 88.6773 61.0493 96.146 47.199 103.608C47.2768 103.564 47.3343 103.495 47.3681 103.413C47.402 103.33 47.4121 103.245 47.4121 103.157V96.6987C47.4121 96.5786 47.3918 96.4618 47.3512 96.3449C47.2701 96.1081 47.1415 95.8997 46.9657 95.7165C46.8743 95.6249 46.7763 95.5523 46.6646 95.4891L88.2153 73.0924H88.2187Z" fill="#1E656D"/>
<path d="M88.2187 73.0924L46.668 95.4923L18.3689 80.2359L59.9196 57.8392L88.2187 73.0924Z" fill="#4E95A9"/>
<path d="M47.4155 103.16C47.4155 103.248 47.4053 103.334 47.3715 103.416C47.3377 103.498 47.2768 103.567 47.2024 103.612C47.2024 103.615 47.199 103.615 47.199 103.615C47.172 103.627 47.1449 103.64 47.1179 103.646C46.9792 103.687 46.7932 103.634 46.668 103.564L18.3689 88.3078V87.8214L46.668 103.078C46.668 103.078 46.6951 103.094 46.7086 103.097C46.7188 103.103 46.7323 103.106 46.7424 103.109C46.756 103.109 46.7695 103.116 46.7796 103.116C46.7932 103.116 46.8033 103.116 46.8135 103.116C46.8236 103.116 46.8371 103.116 46.8473 103.113C46.8574 103.113 46.8676 103.106 46.8743 103.103C46.8845 103.097 46.8946 103.094 46.9014 103.087C46.9082 103.081 46.9183 103.075 46.9251 103.065C46.9318 103.059 46.9352 103.049 46.942 103.04C46.9488 103.03 46.9521 103.021 46.9555 103.008C46.9589 102.999 46.9623 102.986 46.9657 102.974C46.9657 102.961 46.9657 102.948 46.9724 102.936V96.4555C46.9724 96.4555 46.969 96.4271 46.969 96.4144C46.969 96.3986 46.969 96.3828 46.9623 96.3702C46.9623 96.3544 46.9555 96.3386 46.9487 96.3228C46.9487 96.3102 46.9386 96.2944 46.9352 96.2786C46.9285 96.2628 46.9217 96.2471 46.9149 96.2344C46.9048 96.2186 46.898 96.2028 46.8879 96.1902C46.8811 96.1744 46.871 96.1586 46.8608 96.146C46.8507 96.1334 46.8405 96.1176 46.8304 96.1049C46.8202 96.0923 46.8101 96.0797 46.7966 96.067C46.7864 96.0544 46.7729 96.0418 46.7627 96.0323C46.7492 96.0228 46.7357 96.0102 46.7255 96.0039C46.712 95.9944 46.6985 95.9849 46.6883 95.9755C46.6816 95.9723 46.6748 95.9691 46.668 95.966L18.3689 80.7096V80.2232L46.668 95.4797C46.7796 95.5428 46.8777 95.6154 46.969 95.707C47.1449 95.8902 47.2768 96.0986 47.3546 96.3355C47.3952 96.4555 47.4155 96.5723 47.4155 96.6892V103.16Z" fill="#030F33"/>
<path d="M46.969 96.4586V102.759C37.6848 97.7534 28.5528 92.8301 19.2686 87.8246V81.2054L46.6714 95.9786C46.6714 95.9786 46.6849 95.9849 46.6917 95.9881C46.7018 95.9976 46.7154 96.007 46.7289 96.0165C46.7391 96.0228 46.7526 96.0355 46.7661 96.0449C46.7763 96.0544 46.7898 96.067 46.7999 96.0797C46.8135 96.0923 46.8236 96.1049 46.8338 96.1176C46.8439 96.1302 46.854 96.146 46.8642 96.1586C46.8743 96.1713 46.8845 96.187 46.8913 96.2028C46.9014 96.2155 46.9082 96.2313 46.9183 96.247C46.9251 96.2597 46.9318 96.2755 46.9386 96.2913C46.9386 96.3071 46.9488 96.3228 46.9521 96.3355C46.9589 96.3513 46.9623 96.3671 46.9657 96.3829C46.969 96.3955 46.969 96.4113 46.9724 96.4271C46.9724 96.4397 46.9758 96.4523 46.9758 96.4681L46.969 96.4586Z" fill="#E6E9FF"/>
<path d="M46.969 102.92V102.939C46.969 102.939 46.9657 102.964 46.9623 102.977C46.9589 102.989 46.9555 103.002 46.9521 103.012C46.9521 103.024 46.9454 103.034 46.9386 103.043C46.9318 103.053 46.9285 103.062 46.9217 103.068C46.9149 103.078 46.9048 103.084 46.898 103.09C46.8913 103.097 46.8811 103.1 46.871 103.106C46.8642 103.109 46.854 103.113 46.8439 103.116C46.8338 103.119 46.8202 103.119 46.8101 103.119C46.7999 103.119 46.7898 103.119 46.7763 103.119C46.7661 103.119 46.7526 103.116 46.7391 103.113C46.7289 103.113 46.7154 103.106 46.7052 103.1C46.6917 103.1 46.6782 103.09 46.6646 103.084L18.3655 87.8246L19.2618 87.3414V87.8246C28.546 92.8301 37.6781 97.7534 46.9623 102.759V102.92H46.969Z" fill="#283D93"/>
<path d="M25.0962 77.7979L25.1773 52.5621V38.2026L53.0401 23.3978C53.0401 23.3978 64.0831 63.2457 65.0369 75.9978C65.0504 76.1589 53.2938 82.4875 53.3919 82.4339C53.4934 82.3802 43.5428 87.7425 43.5428 87.7425L25.0962 77.7979Z" fill="#9AC4C6"/>
<path d="M59.7471 25.6084L68.5747 75.7767L47.128 87.3414L38.3004 37.1636L59.7471 25.6084Z" fill="#67BEC2"/>
<path d="M54.41 23.9252L54.7346 25.7568C54.3998 25.6526 54.0683 25.5484 53.7031 25.4347L33.4097 36.3867L32.9429 36.2351C32.9125 36.2351 32.8922 36.2257 32.8719 36.2162C32.8212 36.1973 32.7907 36.1783 32.7502 36.1594C32.7197 36.1404 32.6893 36.112 32.6588 36.093C32.6385 36.0646 32.6182 36.0362 32.6081 36.0078C32.598 35.9793 32.5878 35.9604 32.5878 35.932C32.5777 35.8941 32.5878 35.8751 32.598 35.8372C32.6081 35.7993 32.6183 35.7804 32.6385 35.7425C32.669 35.7141 32.6893 35.6857 32.7197 35.6572C32.7603 35.6193 32.7806 35.6004 32.8313 35.5625C32.8719 35.5341 32.9125 35.5151 32.9531 35.4867L54.41 23.922V23.9252Z" fill="#67BEC2"/>
<path d="M36.7344 37.1257C36.6735 37.1352 36.6025 37.1447 36.5315 37.1541C36.4605 37.1636 36.3894 37.1731 36.3286 37.1731H36.1256C36.0647 37.1731 35.9937 37.1636 35.9328 37.1541C35.872 37.1447 35.8212 37.1352 35.7603 37.1257C35.7299 37.1162 35.7096 37.1068 35.6792 37.0973L33.4029 36.3899L53.6963 25.4379C54.0616 25.5516 54.393 25.6558 54.7279 25.76C55.4246 25.9779 56.074 26.1863 56.8519 26.4295L37.4278 36.8983C37.3872 36.9173 37.3466 36.9362 37.2959 36.9552C37.2451 36.9836 37.1843 37.0025 37.1234 37.031C37.0625 37.0499 37.0016 37.0689 36.9306 37.0783C36.8697 37.0973 36.7987 37.1162 36.7277 37.1257H36.7344Z" fill="#E6E9FF"/>
<path d="M36.9374 37.0783C37.0084 37.0689 37.0693 37.0499 37.1301 37.031C37.191 37.0025 37.2519 36.9836 37.3026 36.9552C37.3534 36.9362 37.394 36.9173 37.4345 36.8983L58.8914 25.3337L59.7505 25.6084L38.3038 37.1636C38.04 37.3057 37.7694 37.4194 37.4751 37.5047C36.9002 37.6657 36.2913 37.7415 35.6859 37.7226C35.3815 37.7226 35.0907 37.6657 34.7964 37.5805L32.0568 36.7215C31.9046 36.6741 31.7625 36.6173 31.6306 36.5225C31.5292 36.4562 31.4379 36.3615 31.3871 36.2573C31.377 36.2383 31.3668 36.2099 31.3668 36.1815C31.3567 36.172 31.3567 36.153 31.3567 36.1436C31.3364 36.0678 31.3465 35.9825 31.377 35.9067C31.4176 35.7646 31.519 35.6414 31.6408 35.5372C31.7727 35.4046 31.935 35.3098 32.0974 35.2151L53.5441 23.6599L54.4133 23.9252L32.9565 35.4899C32.9159 35.5183 32.8753 35.5372 32.8347 35.5657C32.784 35.6035 32.7637 35.6225 32.7231 35.6604C32.6927 35.6888 32.6724 35.7172 32.6419 35.7457C32.6216 35.7836 32.6115 35.8025 32.6013 35.8404C32.5912 35.8783 32.581 35.8972 32.5912 35.9351C32.5912 35.9636 32.6013 35.9825 32.6115 36.0109C32.6216 36.0394 32.6419 36.0678 32.6622 36.0962C32.6927 36.1151 32.7231 36.1436 32.7535 36.1625C32.7941 36.1815 32.8246 36.2004 32.8753 36.2194C32.8956 36.2288 32.9159 36.2383 32.9463 36.2383L33.4131 36.3899L35.6893 37.1068C35.7198 37.1162 35.74 37.1162 35.7705 37.1257C35.8314 37.1352 35.8821 37.1447 35.943 37.1541C36.0039 37.1636 36.0749 37.1731 36.1358 37.1731H36.3387C36.3996 37.1731 36.4706 37.1636 36.5416 37.1541C36.6127 37.1447 36.6837 37.1352 36.7446 37.1257C36.8156 37.1162 36.8866 37.0973 36.9475 37.0783H36.9374Z" fill="#1E656D"/>
<path d="M32.0534 36.7183L34.793 37.5773C35.0873 37.6626 35.3781 37.7194 35.6825 37.7194C36.288 37.7384 36.8968 37.6626 37.4717 37.5015C37.766 37.4162 38.0366 37.3026 38.3004 37.1604L47.128 87.3414C46.8642 87.4741 46.5936 87.5878 46.2994 87.673C45.7142 87.8341 45.1156 87.9099 44.5102 87.8909C44.1956 87.8909 43.9047 87.8436 43.6206 87.7488L40.881 86.8898C40.7491 86.8519 40.6274 86.7951 40.5056 86.7288C40.4143 86.6719 40.3331 86.6056 40.2722 86.5203C40.2215 86.4635 40.1911 86.3877 40.1809 86.3119C37.2384 69.5997 34.2958 52.8906 31.3634 36.1783C31.3634 36.2067 31.3736 36.2351 31.3837 36.2541C31.4345 36.3583 31.5258 36.4531 31.6273 36.5194C31.7592 36.6141 31.9012 36.671 32.0534 36.7183Z" fill="#1E656D"/>
</g>
</svg>
