<svg width="72" height="85" viewBox="0 0 72 85" fill="none" xmlns="http://www.w3.org/2000/svg">
<g id="Objects" clip-path="url(#clip0_455_1014)">
<path id="Vector" d="M1.20703 77.3028V82.1659C1.20703 82.1659 19.3415 83.6814 22.4123 83.9858C25.48 84.2901 34.8268 85.8056 45.57 84.4407C56.3101 83.0759 70.9246 82.003 70.9246 82.003V76.2945L44.9711 73.7738C44.9711 73.7738 38.6798 72.8824 32.7949 72.99C26.6044 73.1006 21.4437 74.3364 21.4437 74.3364C21.4437 74.3364 1.06648 77.1461 1.21009 77.3059L1.20703 77.3028Z" fill="#1E656D"/>
<path id="Vector_2" d="M0 29.9504V77.6163L1.20693 77.4595V77.2997C1.64386 77.2505 2.10525 77.1952 2.58802 77.1398V77.2782L3.56272 77.1521V77.0292C4.1891 76.9585 4.83992 76.8847 5.51519 76.8078V76.897L6.4899 76.7709V76.6972C7.05517 76.6326 7.63266 76.568 8.21626 76.5035V76.5435L9.19097 76.4174V76.3959C9.58818 76.3529 9.99151 76.3068 10.3948 76.2637L23.3624 74.5792V6.26807L0 29.9504ZM2.58802 75.4399L1.20693 75.7165V71.3606C1.64386 71.2654 2.10525 71.167 2.58802 71.0655V75.4399ZM2.58802 69.4025L1.20693 69.8175V65.4185C1.64386 65.2802 2.10525 65.1357 2.58802 64.9851V69.4025ZM2.58802 63.362L1.20693 63.9184V59.4795C1.64386 59.2982 2.10525 59.1045 2.58802 58.9047V63.3589V63.362ZM2.58802 57.3216L1.20693 58.0194V53.5466C1.64386 53.3192 2.10525 53.0825 2.58802 52.8335V57.3216ZM2.58802 51.278L1.20693 52.1172V47.6168C1.64386 47.3463 2.10525 47.0604 2.58802 46.7623V51.278ZM2.58802 45.2314L1.20693 46.212V41.687C1.64386 41.3735 2.10525 41.0384 2.58802 40.691V45.2314ZM2.58802 39.1848L1.20693 40.3099V35.7665C1.64386 35.4068 2.10525 35.0256 2.58802 34.6291V39.1879V39.1848ZM2.58802 33.132L1.20693 34.3985V29.8397C1.64386 29.434 2.10525 29.0067 2.58802 28.5579V33.132ZM5.51214 74.8558L3.55967 75.2462V70.8565C4.18605 70.7243 4.83687 70.5829 5.51214 70.4415V74.8589V74.8558ZM5.51214 68.5202L3.55967 69.1074V64.6777C4.18605 64.481 4.83687 64.2781 5.51214 64.066V68.5202ZM5.51214 62.1847L3.55967 62.9716V58.5051C4.18605 58.2468 4.83687 57.9763 5.51214 57.6966V62.1877V62.1847ZM5.51214 55.8429L3.55967 56.8297V52.3293C4.18605 52.0066 4.83687 51.6684 5.51214 51.321V55.8429ZM5.51214 49.5012L3.55967 50.6878V46.1598C4.18605 45.7724 4.83687 45.3697 5.51214 44.9517V49.5012ZM5.51214 43.1534L3.55967 44.5397V39.9871C4.18605 39.5352 4.83687 39.0649 5.51214 38.5792V43.1534ZM5.51214 36.8024L3.55967 38.3917V33.8206C4.18605 33.3042 4.83687 32.7662 5.51214 32.2098V36.8024ZM5.51214 30.4484L3.55967 32.2375V27.6541C4.18299 27.0731 4.83687 26.4675 5.51214 25.8404V30.4484ZM8.21015 74.3179L6.48379 74.6622V70.2325C7.04906 70.1126 7.62655 69.9896 8.21015 69.8667V74.3179ZM8.21015 67.7087L6.48379 68.2282V63.7616C7.04906 63.5864 7.62655 63.4051 8.21015 63.2206V67.7087ZM8.21015 61.0965L6.48379 61.7912V57.2877C7.04906 57.0541 7.62655 56.8143 8.21015 56.5746V61.0965ZM8.21015 54.4811L6.48379 55.3511V50.8169C7.04906 50.5249 7.62655 50.2267 8.21015 49.9254V54.4781V54.4811ZM8.21015 47.8597L6.48379 48.9079V44.3461C7.04906 43.9956 7.62655 43.639 8.21015 43.2794V47.8597ZM8.21015 41.2352L6.48379 42.4617V37.8783C7.04906 37.4695 7.62655 37.0545 8.21015 36.6333V41.2382V41.2352ZM8.21015 34.6075L6.48379 36.0124V31.4075C7.04906 30.9402 7.62655 30.4668 8.21015 29.9842V34.6075ZM8.21015 27.9738L6.48379 29.5569V24.9397C7.04906 24.4141 7.62655 23.8792 8.21015 23.3351V27.9738ZM11.2259 73.7154L9.18486 74.1211V69.6607C9.86012 69.5193 10.5415 69.3748 11.2259 69.2303V73.7154ZM11.2259 66.8019L9.18486 67.4167V62.9163C9.86012 62.7073 10.5415 62.4921 11.2259 62.28V66.8019ZM11.2259 59.8853L9.18486 60.7061V56.1719C9.86012 55.8921 10.5415 55.6093 11.2259 55.3265V59.8822V59.8853ZM11.2259 52.9595L9.18486 53.9893V49.4244C9.86012 49.077 10.5415 48.7235 11.2259 48.3731V52.9595ZM11.2259 46.0306L9.18486 47.2695V42.6769C9.86012 42.2588 10.5415 41.8377 11.2259 41.4165V46.0306ZM11.2259 39.0956L9.18486 40.5435V35.9294C9.86012 35.4437 10.5415 34.9518 11.2259 34.4569V39.0956ZM11.2259 32.1545L9.18486 33.8144V29.1788C9.86012 28.6224 10.5415 28.0599 11.2259 27.4942V32.1545ZM11.2259 25.2102L9.18486 27.0823V22.4313C9.86012 21.8042 10.5415 21.171 11.2259 20.5346V25.2133V25.2102ZM14.8406 72.996L12.1976 73.5217V69.0244C13.0837 68.8369 13.9667 68.6524 14.8406 68.468V72.993V72.996ZM14.8406 65.7137L12.1976 66.5098V61.9756C13.0837 61.699 13.9667 61.4223 14.8406 61.1518V65.7137ZM14.8406 58.4282L12.1976 59.4918V54.9238C13.0837 54.558 13.9667 54.1922 14.8406 53.8325V58.4282ZM14.8406 51.1335L12.1976 52.4677V47.8689C13.0837 47.4109 13.9698 46.9559 14.8406 46.5071V51.1335ZM14.8406 43.8358L12.1976 45.4404V40.814C13.0837 40.2668 13.9698 39.7197 14.8406 39.1786V43.8327V43.8358ZM14.8406 36.5288L12.1976 38.407V33.756C13.0837 33.1166 13.9698 32.4772 14.8406 31.8471V36.5288ZM14.8406 29.2126L12.1976 31.3614L12.2037 26.8303C12.2037 26.8303 13.9667 25.2256 14.8406 24.5063V29.2095V29.2126ZM14.8406 21.8934L12.1976 24.3188L12.2556 19.5602C12.2556 19.5602 13.9698 17.9801 14.8406 17.1686V21.8934ZM18.4583 72.2736L15.8153 72.7993V68.262C16.7197 68.0714 17.6058 67.887 18.4583 67.7056V72.2706V72.2736ZM18.4583 64.6285L15.8153 65.4247V60.8536C16.7197 60.5708 17.6058 60.2972 18.4583 60.0298V64.6285ZM18.4583 56.9711L15.8153 58.0347V53.4298C16.7197 53.0548 17.6058 52.689 18.4583 52.3385V56.9711ZM18.4583 49.3106L15.8153 50.6448V46.0091C16.7197 45.5419 17.6058 45.0869 18.4583 44.6473V49.3106ZM18.4583 41.6379L15.8153 43.2425V38.5761C16.7197 38.0166 17.6058 37.4695 18.4583 36.9407V41.6348V41.6379ZM18.4583 33.9589L15.8153 35.8372V31.1462C16.7197 30.4914 17.6058 29.852 18.4583 29.2372V33.9589ZM18.4583 26.2708L15.8153 28.4195V23.704C16.7197 22.957 17.6058 22.2254 18.4583 21.5214V26.2708ZM18.4583 18.5734L15.8153 20.9988V16.2587C16.7197 15.4164 17.6058 14.5925 18.4583 13.7994V18.5734ZM22.0485 71.5574L19.43 72.08V67.5058C20.3558 67.3121 21.2358 67.1277 22.0485 66.9586V71.5605V71.5574ZM22.0485 63.5465L19.43 64.3334V59.7224C20.3558 59.4334 21.2358 59.1598 22.0485 58.9078V63.5434V63.5465ZM22.0485 55.5263L19.43 56.5807V51.9389C20.3558 51.5577 21.2358 51.1919 22.0485 50.8569V55.5263ZM22.0485 47.497L19.43 48.8188V44.1432C20.3589 43.6667 21.2358 43.2118 22.0485 42.7937V47.497ZM22.0485 39.4584L19.43 41.0476V36.3413C20.3589 35.7665 21.2388 35.2224 22.0485 34.7213V39.4553V39.4584ZM22.0485 31.4075L19.43 33.2673V28.5333C20.3589 27.8631 21.2388 27.2268 22.0485 26.6427V31.4075ZM22.0485 23.3504L19.43 25.4808V20.7191C20.3589 19.9506 21.2388 19.2251 22.0485 18.555V23.3504ZM22.0485 15.2811L19.43 17.6819V12.8926C20.3619 12.0257 21.2388 11.208 22.0485 10.4549V15.278V15.2811Z" fill="#67BEC2"/>
<path id="Vector_3" d="M48.418 5.81934L48.6471 74.5884L61.6147 76.273C62.018 76.3161 62.4214 76.3622 62.8186 76.4052V76.4267L63.7933 76.5528V76.5128C64.3769 76.5774 64.9544 76.6419 65.5196 76.7065V76.7802L66.4944 76.9063V76.8171C67.1666 76.894 67.8204 76.9678 68.4468 77.0385V77.1614L69.4215 77.2875V77.1491C69.9043 77.2045 70.3657 77.2567 70.8026 77.309V77.4688L72.0095 77.6256V29.9505L48.418 5.81934ZM69.4154 71.0625C69.8982 71.1671 70.3596 71.2654 70.7965 71.3577V75.7135L69.4154 75.4369V71.0625ZM69.4154 64.9821C69.8982 65.1327 70.3596 65.2803 70.7965 65.4155V69.8145L69.4154 69.3995V64.9821ZM69.4154 58.9078C69.8982 59.1076 70.3596 59.3013 70.7965 59.4827V63.9216L69.4154 63.3652V58.9109V58.9078ZM69.4154 52.8335C69.8982 53.0825 70.3596 53.3223 70.7965 53.5467V58.0194L69.4154 57.3216V52.8335ZM69.4154 46.7593C69.8982 47.0574 70.3596 47.3433 70.7965 47.6138V52.1142L69.4154 51.275V46.7593ZM69.4154 40.6911C69.8982 41.0385 70.3596 41.3736 70.7965 41.6871V46.2121L69.4154 45.2315V40.6911ZM69.4154 34.623C69.8982 35.0195 70.3596 35.4038 70.7965 35.7604V40.3038L69.4154 39.1787V34.6199V34.623ZM69.4154 28.561C69.8982 29.0098 70.3596 29.4371 70.7965 29.8429V34.4017L69.4154 33.1352V28.561ZM66.4882 70.4385C67.1635 70.583 67.8143 70.7213 68.4407 70.8535V75.2432L66.4882 74.8528V70.4354V70.4385ZM66.4882 64.0661C67.1635 64.2782 67.8143 64.481 68.4407 64.6778V69.1075L66.4882 68.5203V64.0661ZM66.4882 57.6936C67.1635 57.9733 67.8143 58.2438 68.4407 58.5021V62.9686L66.4882 62.1817V57.6905V57.6936ZM66.4882 51.3211C67.1635 51.6685 67.8143 52.0066 68.4407 52.3294V56.8298L66.4882 55.843V51.3211ZM66.4882 44.9517C67.1635 45.3698 67.8143 45.7725 68.4407 46.1598V50.6879L66.4882 49.5013V44.9517ZM66.4882 38.5793C67.1635 39.065 67.8143 39.5384 68.4407 39.9872V44.5398L66.4882 43.1534V38.5793ZM66.4882 32.2099C67.1635 32.7663 67.8143 33.3042 68.4407 33.8207V38.3918L66.4882 36.8025V32.2099ZM66.4882 25.8436C67.1635 26.4707 67.8143 27.0763 68.4407 27.6572V32.2406L66.4882 30.4515V25.8436ZM63.7902 69.8667C64.3738 69.9897 64.9513 70.1127 65.5166 70.2326V74.6622L63.7902 74.3179V69.8667ZM63.7902 63.2207C64.3738 63.4021 64.9513 63.5834 65.5166 63.7617V68.2283L63.7902 67.7088V63.2207ZM63.7902 56.5746C64.3738 56.8175 64.9513 57.0542 65.5166 57.2878V61.7913L63.7902 61.0965V56.5746ZM63.7902 49.9286C64.3738 50.2298 64.9513 50.528 65.5166 50.8201V55.3543L63.7902 54.4843V49.9317V49.9286ZM63.7902 43.2795C64.3738 43.6422 64.9513 43.9988 65.5166 44.3461V48.908L63.7902 47.8598V43.2795ZM63.7902 36.6334C64.3738 37.0546 64.9513 37.4726 65.5166 37.8784V42.4618L63.7902 41.2352V36.6303V36.6334ZM63.7902 29.9843C64.3738 30.4669 64.9513 30.9434 65.5166 31.4076V36.0125L63.7902 34.6076V29.9843ZM63.7902 23.3352C64.3738 23.8793 64.9513 24.4141 65.5166 24.9398V29.557L63.7902 27.9739V23.3352ZM60.7744 69.2304C61.4589 69.3749 62.1403 69.5194 62.8155 69.6608V74.1212L60.7744 73.7154V69.2304ZM60.7744 62.28C61.4589 62.4922 62.1403 62.7073 62.8155 62.9164V67.4167L60.7744 66.8019V62.28ZM60.7744 55.3297C61.4589 55.6125 62.1403 55.8953 62.8155 56.175V60.7092L60.7744 59.8884V55.3327V55.3297ZM60.7744 48.3731C61.4589 48.7266 62.1403 49.0771 62.8155 49.4244V53.9894L60.7744 52.9596V48.3731ZM60.7744 41.4166C61.4589 41.8408 62.1403 42.262 62.8155 42.677V47.2696L60.7744 46.0307V41.4166ZM60.7744 34.457C61.4589 34.9519 62.1403 35.4438 62.8155 35.9295V40.5436L60.7744 39.0957V34.457ZM60.7744 27.4943C61.4589 28.0599 62.1403 28.6225 62.8155 29.1789V33.8145L60.7744 32.1545V27.4943ZM60.7744 20.5316C61.4589 21.168 62.1403 21.8012 62.8155 22.4283V27.0793L60.7744 25.2072V20.5286V20.5316ZM57.1598 68.4681C58.0337 68.6525 58.9167 68.8369 59.8028 69.0245V73.5218L57.1598 72.9961V68.4711V68.4681ZM57.1598 61.1519C58.0337 61.4224 58.9167 61.699 59.8028 61.9757V66.5099L57.1598 65.7137V61.1519ZM57.1598 53.8326C58.0337 54.1923 58.9167 54.5581 59.8028 54.9239V59.4919L57.1598 58.4283V53.8326ZM57.1598 46.5103C58.0306 46.9591 58.9167 47.4171 59.8028 47.8721V52.4708L57.1598 51.1367V46.5103ZM57.1598 39.1818C58.0306 39.7197 58.9167 40.2669 59.8028 40.8172V45.4436L57.1598 43.8389V39.1849V39.1818ZM57.1598 31.8471C58.0306 32.4773 58.9167 33.1167 59.8028 33.7561V38.4071L57.1598 36.5289V31.8471ZM57.1598 24.5094C58.0306 25.2288 59.7967 26.8334 59.7967 26.8334L59.8028 31.3645L57.1598 29.2158V24.5125V24.5094ZM57.1598 17.1656C58.0306 17.9771 59.7447 19.5572 59.7447 19.5572L59.8028 24.3158L57.1598 21.8904V17.1656ZM53.5421 67.7088C54.3945 67.8871 55.2806 68.0746 56.1851 68.2652V72.8024L53.5421 72.2768V67.7118V67.7088ZM53.5421 60.0268C54.3945 60.2911 55.2806 60.5678 56.1851 60.8506V65.4217L53.5421 64.6255V60.0268ZM53.5421 52.3386C54.3945 52.6921 55.2806 53.058 56.1851 53.4299V58.0348L53.5421 56.9712V52.3386ZM53.5421 44.6443C54.3945 45.0839 55.2806 45.5389 56.1851 46.0061V50.6418L53.5421 49.3076V44.6443ZM53.5421 36.9439C54.3945 37.4695 55.2806 38.0198 56.1851 38.5793V43.2456L53.5421 41.641V36.947V36.9439ZM53.5421 29.2373C54.3945 29.8521 55.2806 30.4915 56.1851 31.1463V35.8372L53.5421 33.959V29.2373ZM53.5421 21.5215C54.3945 22.2254 55.2806 22.9571 56.1851 23.704V28.4196L53.5421 26.2709V21.5215ZM53.5421 13.7995C54.3945 14.5926 55.2776 15.4165 56.1851 16.2587V20.9989L53.5421 18.5735V13.7995ZM49.9518 66.9556C50.7646 67.1247 51.6446 67.3092 52.5704 67.5028V72.077L49.9518 71.5544V66.9526V66.9556ZM49.9518 58.9109C50.7646 59.163 51.6446 59.4366 52.5704 59.7255V64.3366L49.9518 63.5496V58.914V58.9109ZM49.9518 50.8569C50.7646 51.192 51.6446 51.5547 52.5704 51.939V56.5808L49.9518 55.5264V50.8569ZM49.9518 42.7938C50.7615 43.2118 51.6415 43.6637 52.5704 44.1433V48.8189L49.9518 47.497V42.7938ZM49.9518 34.7244C50.7615 35.2255 51.6415 35.7696 52.5704 36.3445V41.0508L49.9518 39.4615V34.7275V34.7244ZM49.9518 26.6428C50.7615 27.2269 51.6415 27.8632 52.5704 28.5333V33.2673L49.9518 31.4076V26.6428ZM49.9518 18.555C50.7615 19.2221 51.6385 19.9507 52.5704 20.7192V25.4808L49.9518 23.3505V18.555ZM49.9518 10.455C50.7615 11.2081 51.6385 12.0258 52.5704 12.8927V17.682L49.9518 15.2812V10.458V10.455Z" fill="#67BEC2"/>
<path id="Vector_4" d="M23.3779 72.1874L48.5217 72.4641L48.0695 3.63658C48.0695 3.63658 45.9581 0 36.315 0C28.0223 0 23.6438 4.10383 23.6438 4.10383L23.3779 72.1905V72.1874Z" fill="#1E656D"/>
<g id="Group">
<path id="Vector_5" d="M36.3361 2.88037C30.8668 2.88037 26.4363 4.55879 23.6527 5.98821L23.6436 10.1658C25.5777 8.95465 30.2221 6.52002 36.3361 6.52002C43.3577 6.52002 46.8593 8.56118 48.1121 9.51413L48.0815 5.25967C45.7135 4.07309 41.943 2.88345 36.3361 2.88345V2.88037Z" fill="#ACDBDD"/>
<path id="Vector_6" d="M36.3509 10.2578C30.8632 10.2578 26.4144 11.8409 23.64 13.1751L23.6309 17.285C25.5925 16.1477 30.246 13.8944 36.3509 13.8944C43.4031 13.8944 46.9138 15.7849 48.1635 16.661L48.133 12.4557C45.7925 11.3552 42.0342 10.2578 36.3509 10.2578Z" fill="#ACDBDD"/>
<path id="Vector_7" d="M36.3668 17.6357C30.8578 17.6357 26.3937 19.1205 23.6254 20.3593L23.6162 24.414C25.6206 23.3504 30.3078 21.2754 36.3668 21.2754C43.4434 21.2754 46.9634 23.0091 48.2192 23.8145L48.1886 19.6861C45.8664 18.6686 42.102 17.6357 36.3668 17.6357Z" fill="#ACDBDD"/>
<path id="Vector_8" d="M36.3788 25.0132C30.8453 25.0132 26.3629 26.3996 23.6068 27.5431L23.5977 31.5332C25.6204 30.5434 30.2862 28.6528 36.3758 28.6528C43.4646 28.6528 46.9998 30.2237 48.2648 30.9614L48.2342 26.9099C45.9334 25.9754 42.1629 25.0163 36.3758 25.0163L36.3788 25.0132Z" fill="#ACDBDD"/>
<path id="Vector_9" d="M36.3937 32.3911C30.8357 32.3911 26.338 33.6761 23.5941 34.7243L23.585 38.6591C25.6413 37.7461 30.3132 36.0308 36.3937 36.0308C43.4855 36.0308 47.036 37.4387 48.3224 38.1057L48.2949 34.1249C46.0185 33.2764 42.245 32.3942 36.3967 32.3942L36.3937 32.3911Z" fill="#ACDBDD"/>
<path id="Vector_10" d="M36.4094 39.7686C30.824 39.7686 26.3079 40.949 23.5824 41.8989L23.5732 45.7814C25.6663 44.9452 30.3442 43.4051 36.4094 43.4051C43.4921 43.4051 47.0609 44.644 48.3748 45.2465L48.3473 41.3302C46.0984 40.574 42.3218 39.7686 36.4094 39.7686Z" fill="#ACDBDD"/>
<path id="Vector_11" d="M36.4214 47.1465C30.8085 47.1465 26.2741 48.2224 23.5639 49.0739L23.5547 52.9103C25.6874 52.1541 30.3715 50.7861 36.4214 50.7861C43.4827 50.7861 47.0729 51.8559 48.4235 52.3908L48.396 48.5329C46.1838 47.8658 42.4072 47.1465 36.4214 47.1465Z" fill="#ACDBDD"/>
<path id="Vector_12" d="M36.4364 54.5239C30.7928 54.5239 26.2432 55.4892 23.5482 56.2423L23.5391 60.0418C25.7207 59.3655 30.4323 58.1636 36.4333 58.1636C43.4671 58.1636 47.0787 59.0673 48.4751 59.5346L48.4476 55.732C46.2751 55.1603 42.5015 54.527 36.4333 54.527L36.4364 54.5239Z" fill="#ACDBDD"/>
<path id="Vector_13" d="M36.4521 61.9019C30.7781 61.9019 26.207 62.7534 23.5365 63.4081L23.5273 67.1707C25.7487 66.5744 30.4664 65.5415 36.4521 65.5415C43.4523 65.5415 47.0853 66.2793 48.5306 66.6758L48.5031 62.9194C46.3795 62.446 42.609 61.9049 36.4521 61.9049V61.9019Z" fill="#ACDBDD"/>
<path id="Vector_14" d="M36.4641 69.2793C30.7534 69.2793 26.1671 70.0171 23.518 70.5704L23.5088 74.2992C25.7668 73.7889 30.1301 73.2725 36.1005 73.2725C43.0579 73.2725 46.972 74.1793 48.4753 74.5021V70.5058C46.4129 70.1308 42.7279 69.2793 36.4611 69.2793H36.4641Z" fill="#ACDBDD"/>
</g>
</g>
<defs>
<clipPath id="clip0_455_1014">
<rect width="72" height="85" fill="white"/>
</clipPath>
</defs>
</svg>
