<svg width="106" height="74" viewBox="0 0 106 74" fill="none" xmlns="http://www.w3.org/2000/svg">
<g id="Vector">
<path d="M13.0677 34.0557L12.9644 31.2362L0.933937 48.1393L1.01146 49.073L13.0677 34.0557Z" fill="#4E95A9"/>
<path d="M72.6293 14.7307L60.2039 0L12.1855 30.945L0 47.9405L0.933937 48.1393L12.9053 31.3518L60.1374 0.730294L71.9131 15.179L72.6293 14.7307Z" fill="#F62A00"/>
<path d="M66.7414 18.0678L57.3651 7.07645L23.1343 28.389L23.2451 34.4809L21.8386 36.1865L18.5495 36.0386L19.0294 74L61.9647 72.5533L61.7358 42.4032L66.7414 18.0678Z" fill="#67BEC2"/>
<path d="M97.8087 71.9108L97.5429 40.1384L95.9482 40.5821L95.9076 35.4007L80.2854 15.3269L63.7292 27.2936L63.6406 34.1158L57.498 33.233L57.4796 37.2681L72.4226 39.6854L72.5075 72.4423L97.8087 71.9108Z" fill="#67BEC2"/>
<path d="M100.319 39.3527L95.9482 40.5821L95.9076 35.4007L80.2115 15.2252L84.2168 12.4381L99.9497 33.4641L100.319 39.3527Z" fill="#4E95A9"/>
<path d="M106 39.9905L100.319 39.3527L99.9497 33.4641L84.2168 12.4381L63.7292 27.2936L63.6664 34.1019L54.7368 32.7939L54.8291 29.9929L84.0248 8.43535L105.989 38.345L106 39.9905Z" fill="#B3DFE0"/>
<path d="M84.0248 8.43535L71.9131 15.179L70.3037 16.8476L66.7414 18.0678L43.0349 36.0247L54.8291 29.9929L84.0248 8.43535Z" fill="#F62A00"/>
<path d="M72.4226 39.6854L72.5075 72.4423L61.9647 72.5533L61.7358 42.4032L72.4226 39.6854Z" fill="#4E95A9"/>
<path d="M72.4226 39.6854L61.7358 42.4032L47.2063 41.5297L57.4796 37.2681L72.4226 39.6854Z" fill="#227A94"/>
<path d="M57.4796 37.2681L57.498 33.233L47.018 38.2295L47.2063 41.5297L57.4796 37.2681Z" fill="#4E95A9"/>
<path d="M57.498 33.233L47.018 38.2295L43.0202 38.2757L54.7368 32.7939L57.498 33.233Z" fill="#227A94"/>
<path d="M43.0349 36.0247L43.0202 38.2757L54.7368 32.7939L54.8291 29.9929L42.6805 36.1264" fill="#4E95A9"/>
<path d="M57.2175 38.7656L57.4722 72.6087L60.3774 72.5718L60.1891 39.2926L57.2175 38.7656Z" fill="#86CBCE"/>
<path d="M55.8553 46.5631L47.7858 45.7219L47.9925 72.9092L55.9919 72.8121L55.8553 46.5631Z" fill="#1E656D"/>
<path d="M57.2175 38.7656L55.2869 39.727L55.5379 72.6319L57.4722 72.6087L57.2175 38.7656Z" fill="#4E95A9"/>
<path d="M44.2346 45.6711L25.8365 44.2012L26.0026 65.9483L44.3196 65.4491L44.2346 45.6711Z" fill="#1E656D"/>
<path d="M71.9131 15.179L60.1374 0.730294L12.9053 31.3518L13.0677 34.0557L23.2451 34.4809L23.1343 28.389L60.5989 4.98726L70.3037 16.8476L71.9131 15.179Z" fill="#B3DFE0"/>
<path d="M70.3037 16.8476L66.7414 18.0678L57.3651 7.07645L60.5989 4.98726L70.3037 16.8476Z" fill="#227A94"/>
<path d="M23.2451 34.4809L21.8386 36.1865L18.5495 36.0386L5.30831 49.2301L1.01146 49.073L13.0677 34.0557L23.2451 34.4809Z" fill="#227A94"/>
<path d="M18.5495 36.0386L5.30831 49.2301L5.47073 70.8662L19.0294 74L18.5495 36.0386Z" fill="#4E95A9"/>
<path d="M92.3416 46.3274L79.8756 45.2274L80.027 64.9915L92.6296 65.255L92.3416 46.3274Z" fill="#1E656D"/>
</g>
</svg>
