<svg width="72" height="70" viewBox="0 0 72 70" fill="none" xmlns="http://www.w3.org/2000/svg">
<g id="Object" clip-path="url(#clip0_454_961)">
<path id="Vector" d="M61.9705 0L53.9903 2.59759L56.2784 4.89784L39.6204 21.2116L25.4187 17.8803L5.46191 41.2641L7.48741 42.9008L26.2899 20.3375L40.3603 23.9592L57.4641 6.08857L59.5197 8.15618L61.9705 0Z" fill="#F62A00"/>
<path id="Vector_2" d="M67.0888 65.2344V15.6903C67.0888 15.0102 66.5362 14.4541 65.8606 14.4541H53.8896C53.2139 14.4541 52.6614 15.0102 52.6614 15.6903V65.2344H51.1105V29.5633C51.1105 28.8833 50.558 28.3272 49.8823 28.3272H37.9113C37.2357 28.3272 36.6831 28.8833 36.6831 29.5633V65.2344H35.1322V39.4292C35.1322 38.7492 34.5797 38.1931 33.9041 38.1931H21.933C21.2574 38.1931 20.7049 38.7492 20.7049 39.4292V65.2344H19.154V51.1466C19.154 50.4666 18.6014 49.9104 17.9258 49.9104H5.94928C5.27366 49.9104 4.72113 50.4666 4.72113 51.1466V65.2344H0V70.0001H72V65.2344H67.0888Z" fill="#1E656D"/>
</g>
<defs>
<clipPath id="clip0_454_961">
<rect width="72" height="70" fill="white"/>
</clipPath>
</defs>
</svg>
