<svg width="70" height="59" viewBox="0 0 70 59" fill="none" xmlns="http://www.w3.org/2000/svg">
<g id="Frame" clip-path="url(#clip0_455_1203)">
<g id="Group">
<g id="Layer_1">
<g id="Group_2">
<g id="Group_3">
<path id="Vector" d="M66.16 58.1199H3.79C1.7 58.1199 0 56.2299 0 53.9099V11.5699C0 9.23986 1.7 7.35986 3.79 7.35986H66.16C68.25 7.35986 69.95 9.24986 69.95 11.5699V53.9099C69.95 56.2399 68.25 58.1199 66.16 58.1199Z" fill="#1E656D"/>
<path id="Vector_2" d="M62.0198 53.8499H7.91977C5.75977 53.8499 4.00977 52.0699 4.00977 49.8699V16.6699C4.00977 14.4699 5.75977 12.6899 7.91977 12.6899H62.0198C64.1798 12.6899 65.9298 14.4699 65.9298 16.6699V49.8699C65.9298 52.0699 64.1798 53.8499 62.0198 53.8499Z" fill="#ACDBDD"/>
<g id="Group_4">
<path id="Vector_3" d="M62.0397 31.1001H34.9697V34.3701H62.0397V31.1001Z" fill="white"/>
<path id="Vector_4" d="M62.0397 38.04H34.9697V41.31H62.0397V38.04Z" fill="white"/>
<path id="Vector_5" d="M62.0397 44.9902H34.9697V48.2602H62.0397V44.9902Z" fill="white"/>
</g>
<g id="Group_5">
<path id="Vector_6" d="M39.6 21.26C39.6 21.62 39.52 21.95 39.35 22.23C39.19 22.51 38.95 22.73 38.64 22.89C38.33 23.05 37.97 23.12 37.54 23.12H36.14V25.1H34.96V19.48H37.49C38.16 19.48 38.68 19.64 39.05 19.95C39.41 20.26 39.6 20.7 39.6 21.27V21.26ZM38.41 21.28C38.41 20.69 38.06 20.39 37.36 20.39H36.14V22.21H37.39C37.71 22.21 37.96 22.13 38.14 21.97C38.32 21.81 38.4 21.58 38.4 21.27L38.41 21.28Z" fill="white"/>
<path id="Vector_7" d="M44.2899 25.1097L42.9799 22.9697H41.5999V25.1097H40.4199V19.4897H43.2299C43.8999 19.4897 44.4199 19.6297 44.7799 19.9197C45.1399 20.2097 45.3299 20.6197 45.3299 21.1597C45.3299 21.5497 45.2199 21.8897 44.9899 22.1797C44.7699 22.4697 44.4599 22.6497 44.0799 22.7397L45.5999 25.0997H44.2699L44.2899 25.1097ZM44.1499 21.2097C44.1499 20.6697 43.7999 20.3997 43.1099 20.3997H41.5999V22.0597H43.1399C43.4699 22.0597 43.7199 21.9897 43.8899 21.8397C44.0599 21.6897 44.1499 21.4797 44.1499 21.2097Z" fill="white"/>
<path id="Vector_8" d="M46.3303 25.1097V19.4897H50.7503V20.3997H47.5003V21.8097H50.5003V22.7197H47.5003V24.1997H50.9103V25.1097H46.3203H46.3303Z" fill="white"/>
<path id="Vector_9" d="M56.3697 23.4899C56.3697 24.0399 56.1697 24.4599 55.7597 24.7499C55.3497 25.0399 54.7497 25.1899 53.9597 25.1899C53.2397 25.1899 52.6697 25.0599 52.2597 24.8099C51.8497 24.5499 51.5897 24.1699 51.4697 23.6499L52.6097 23.4599C52.6897 23.7599 52.8397 23.9699 53.0597 24.1099C53.2797 24.2399 53.5897 24.3099 53.9897 24.3099C54.8097 24.3099 55.2197 24.0599 55.2197 23.5599C55.2197 23.3999 55.1697 23.2699 55.0797 23.1599C54.9897 23.0599 54.8497 22.9699 54.6797 22.8999C54.5097 22.8299 54.1797 22.7499 53.6897 22.6499C53.2697 22.5499 52.9797 22.4699 52.8097 22.4099C52.6497 22.3499 52.4997 22.2799 52.3597 22.1999C52.2297 22.1199 52.1097 22.0199 52.0197 21.9099C51.9297 21.7999 51.8497 21.6599 51.7997 21.5099C51.7497 21.3599 51.7197 21.1799 51.7197 20.9799C51.7197 20.4699 51.9097 20.0799 52.2897 19.8099C52.6697 19.5399 53.2297 19.3999 53.9597 19.3999C54.6897 19.3999 55.1797 19.5099 55.5297 19.7299C55.8797 19.9499 56.1097 20.3099 56.2097 20.8099L55.0697 20.9699C55.0097 20.7299 54.8897 20.5499 54.7097 20.4199C54.5297 20.2999 54.2697 20.2399 53.9397 20.2399C53.2297 20.2399 52.8697 20.4599 52.8697 20.9099C52.8697 21.0599 52.9097 21.1799 52.9797 21.2699C53.0497 21.3599 53.1697 21.4399 53.3197 21.5099C53.4697 21.5799 53.7697 21.6599 54.2297 21.7599C54.7697 21.8699 55.1597 21.9799 55.3897 22.0799C55.6197 22.1799 55.8097 22.2899 55.9397 22.4199C56.0797 22.5499 56.1797 22.6999 56.2497 22.8799C56.3197 23.0599 56.3597 23.2699 56.3597 23.4999L56.3697 23.4899Z" fill="white"/>
<path id="Vector_10" d="M61.8199 23.4899C61.8199 24.0399 61.6199 24.4599 61.2099 24.7499C60.7999 25.0399 60.1999 25.1899 59.4099 25.1899C58.6899 25.1899 58.1199 25.0599 57.7099 24.8099C57.2999 24.5499 57.0399 24.1699 56.9199 23.6499L58.0599 23.4599C58.1399 23.7599 58.2899 23.9699 58.5099 24.1099C58.7299 24.2499 59.0399 24.3099 59.4399 24.3099C60.2599 24.3099 60.6699 24.0599 60.6699 23.5599C60.6699 23.3999 60.6199 23.2699 60.5299 23.1599C60.4399 23.0599 60.2999 22.9699 60.1299 22.8999C59.9599 22.8299 59.6299 22.7499 59.1399 22.6499C58.7199 22.5499 58.4299 22.4699 58.2599 22.4099C58.0899 22.3499 57.9499 22.2799 57.8099 22.1999C57.6799 22.1199 57.5599 22.0199 57.4699 21.9099C57.3799 21.7999 57.2999 21.6599 57.2499 21.5099C57.1999 21.3599 57.1699 21.1799 57.1699 20.9799C57.1699 20.4699 57.3599 20.0799 57.7399 19.8099C58.1199 19.5399 58.6799 19.3999 59.4099 19.3999C60.1399 19.3999 60.6299 19.5099 60.9799 19.7299C61.3299 19.9499 61.5599 20.3099 61.6599 20.8099L60.5199 20.9699C60.4599 20.7299 60.3399 20.5499 60.1599 20.4199C59.9799 20.2999 59.7199 20.2399 59.3899 20.2399C58.6799 20.2399 58.3199 20.4599 58.3199 20.9099C58.3199 21.0599 58.3599 21.1799 58.4299 21.2699C58.4999 21.3599 58.6199 21.4399 58.7699 21.5099C58.9199 21.5799 59.2199 21.6599 59.6799 21.7599C60.2199 21.8699 60.6099 21.9799 60.8399 22.0799C61.0699 22.1799 61.2599 22.2899 61.3899 22.4199C61.5299 22.5499 61.6299 22.6999 61.6999 22.8799C61.7699 23.0599 61.8099 23.2699 61.8099 23.4999L61.8199 23.4899Z" fill="white"/>
</g>
<path id="Vector_11" d="M31.71 21.3101H8V48.2601H31.71V21.3101Z" fill="white"/>
<g id="Group_6">
<path id="Vector_12" d="M21.9995 30.8999H17.7295V38.2999H21.9995V30.8999Z" fill="#1E656D"/>
<path id="Vector_13" d="M29.2997 48.2602V42.4102C29.2997 38.9802 26.5197 36.2002 23.0897 36.2002H16.6397C13.2097 36.2002 10.4297 38.9802 10.4297 42.4102V48.2602H29.3097H29.2997Z" fill="#1E656D"/>
<path id="Vector_14" d="M25.6001 30.1701C25.6001 33.5001 23.0301 36.2001 19.8601 36.2001C16.6901 36.2001 14.1201 33.5001 14.1201 30.1701C14.1201 26.8401 16.6901 24.1401 19.8601 24.1401C23.0301 24.1401 25.6001 26.8401 25.6001 30.1701Z" fill="#1E656D"/>
</g>
<path id="Vector_15" d="M40.7098 0H29.7598C25.7998 0 22.5898 5.63 22.5898 10.5H47.8798C47.8798 5.62 44.6698 0 40.7098 0ZM39.5998 4.56C39.5998 5.37 38.9398 6.03 38.1298 6.03H31.8098C30.9998 6.03 30.3398 5.37 30.3398 4.56V4.53C30.3398 3.72 30.9998 3.06 31.8098 3.06H38.1298C38.9398 3.06 39.5998 3.72 39.5998 4.53V4.56Z" fill="#1E656D"/>
<path id="Vector_16" d="M62.04 16.29H8V16.88H62.04V16.29Z" fill="white"/>
<path id="Vector_17" d="M62.0395 27.0098H35.0195V27.5998H62.0395V27.0098Z" fill="white"/>
</g>
<g id="Vector_18" style="mix-blend-mode:multiply" opacity="0.55">
<path d="M5.11 7.35986H3.79C1.7 7.35986 0 9.24986 0 11.5699V53.9099C0 56.2399 1.7 58.1199 3.79 58.1199H66.16C66.98 58.1199 67.73 57.8299 68.35 57.3399L5.11 7.35986Z" fill="#CECECF"/>
</g>
</g>
</g>
</g>
</g>
<defs>
<clipPath id="clip0_455_1203">
<rect width="69.95" height="58.12" fill="white"/>
</clipPath>
</defs>
</svg>
