<svg xmlns="http://www.w3.org/2000/svg" width="16" height="16" viewBox="0 0 16 16" fill="none">
  <path d="M8.78132 7.99999L5.48132 4.69999C5.38783 4.6065 5.33813 4.47867 5.33813 4.34499C5.33813 4.21131 5.38783 4.08348 5.48132 3.98999C5.57481 3.8965 5.70264 3.8468 5.83632 3.8468C5.97 3.8468 6.09783 3.8965 6.19132 3.98999L9.85799 7.65666C9.90375 7.70237 9.94025 7.75674 9.96511 7.81641C9.98998 7.87608 10.0027 7.93995 10.0027 8.00416C10.0027 8.06837 9.98998 8.13224 9.96511 8.19191C9.94025 8.25158 9.90375 8.30595 9.85799 8.35166L6.19132 12.0183C6.09783 12.1118 5.97 12.1615 5.83632 12.1615C5.70264 12.1615 5.57481 12.1118 5.48132 12.0183C5.38783 11.9248 5.33813 11.797 5.33813 11.6633C5.33813 11.5296 5.38783 11.4018 5.48132 11.3083L8.78132 7.99999Z" fill="currentColor"/>
</svg> 