<svg width="127" height="38" viewBox="0 0 127 38" fill="none" xmlns="http://www.w3.org/2000/svg">
<path d="M35.6006 16.1845C35.6486 16.4085 35.7446 16.6165 35.8886 16.8085C36.0406 17.0005 36.2446 17.1565 36.5006 17.2765C36.7566 17.3965 37.0726 17.4565 37.4486 17.4565C38.0086 17.4565 38.4206 17.3285 38.6846 17.0725C38.9566 16.8085 39.0926 16.5005 39.0926 16.1485C39.0926 15.8605 39.0086 15.6245 38.8406 15.4405C38.6806 15.2485 38.4566 15.0885 38.1686 14.9605C37.8886 14.8245 37.5646 14.7045 37.1966 14.6005C36.8766 14.5045 36.5606 14.4045 36.2486 14.3005C35.9446 14.1885 35.6686 14.0525 35.4206 13.8925C35.1726 13.7245 34.9766 13.5125 34.8326 13.2565C34.6886 12.9925 34.6166 12.6645 34.6166 12.2725C34.6166 11.7845 34.7326 11.3645 34.9646 11.0125C35.1966 10.6605 35.5206 10.3925 35.9366 10.2085C36.3606 10.0165 36.8486 9.92054 37.4006 9.92054C37.8646 9.92054 38.2806 9.98854 38.6486 10.1245C39.0166 10.2525 39.3246 10.4405 39.5726 10.6885C39.8286 10.9285 40.0166 11.2205 40.1366 11.5645L39.0446 11.9605C38.9966 11.7845 38.8966 11.6205 38.7446 11.4685C38.5926 11.3085 38.4006 11.1805 38.1686 11.0845C37.9366 10.9885 37.6766 10.9405 37.3886 10.9405C37.0926 10.9325 36.8246 10.9805 36.5846 11.0845C36.3526 11.1805 36.1646 11.3205 36.0206 11.5045C35.8846 11.6885 35.8166 11.9085 35.8166 12.1645C35.8166 12.4445 35.8966 12.6645 36.0566 12.8245C36.2166 12.9845 36.4286 13.1165 36.6926 13.2205C36.9646 13.3245 37.2606 13.4245 37.5806 13.5205C37.9166 13.6245 38.2446 13.7365 38.5646 13.8565C38.8846 13.9765 39.1726 14.1285 39.4286 14.3125C39.6926 14.4965 39.9046 14.7285 40.0646 15.0085C40.2246 15.2805 40.3046 15.6245 40.3046 16.0405C40.3046 16.4885 40.2006 16.8965 39.9926 17.2645C39.7846 17.6325 39.4686 17.9285 39.0446 18.1525C38.6286 18.3765 38.1046 18.4885 37.4726 18.4885C36.9526 18.4885 36.4846 18.4085 36.0686 18.2485C35.6526 18.0885 35.3086 17.8685 35.0366 17.5885C34.7726 17.3005 34.5966 16.9685 34.5086 16.5925L35.6006 16.1845ZM45.3941 18.4045L45.2981 17.5285C45.1141 17.8325 44.8741 18.0685 44.5781 18.2365C44.2901 18.3965 43.9141 18.4765 43.4501 18.4765C43.0181 18.4765 42.6501 18.4085 42.3461 18.2725C42.0421 18.1285 41.8061 17.9325 41.6381 17.6845C41.4781 17.4285 41.3981 17.1325 41.3981 16.7965C41.3981 16.2925 41.5861 15.8765 41.9621 15.5485C42.3381 15.2125 42.8821 15.0045 43.5941 14.9245L45.2981 14.7325V14.2645C45.2981 14.0085 45.1941 13.7925 44.9861 13.6165C44.7781 13.4325 44.4781 13.3405 44.0861 13.3405C43.7181 13.3405 43.4061 13.4285 43.1501 13.6045C42.8941 13.7725 42.7221 14.0245 42.6341 14.3605L41.6261 14.0005C41.7781 13.4725 42.0741 13.0605 42.5141 12.7645C42.9621 12.4685 43.5021 12.3205 44.1341 12.3205C44.8861 12.3205 45.4581 12.5085 45.8501 12.8845C46.2421 13.2605 46.4381 13.7565 46.4381 14.3725V18.4045H45.3941ZM45.2981 15.6565L43.6541 15.8605C43.3021 15.9085 43.0381 16.0085 42.8621 16.1605C42.6861 16.3045 42.5981 16.4965 42.5981 16.7365C42.5981 16.9605 42.6821 17.1485 42.8501 17.3005C43.0261 17.4445 43.2701 17.5165 43.5821 17.5165C43.9661 17.5165 44.2861 17.4445 44.5421 17.3005C44.7981 17.1565 44.9861 16.9565 45.1061 16.7005C45.2341 16.4365 45.2981 16.1325 45.2981 15.7885V15.6565ZM48.0622 9.76454H49.2022V14.9125H49.6942L51.9382 12.4045H53.4742L50.6902 15.4045L53.4862 18.4045H51.9382L49.6942 15.8845H49.2022V18.4045H48.0622V9.76454ZM59.5353 18.4045H58.5033L58.4193 17.6965C58.2273 17.9525 57.9833 18.1485 57.6873 18.2845C57.3993 18.4205 57.0753 18.4885 56.7153 18.4885C56.2513 18.4885 55.8473 18.3925 55.5033 18.2005C55.1593 18.0005 54.8913 17.7125 54.6993 17.3365C54.5153 16.9525 54.4233 16.4765 54.4233 15.9085V12.4045H55.5633V15.7645C55.5633 16.3165 55.6753 16.7365 55.8993 17.0245C56.1313 17.3125 56.4793 17.4565 56.9433 17.4565C57.3993 17.4565 57.7553 17.3085 58.0113 17.0125C58.2753 16.7165 58.4073 16.2765 58.4073 15.6925V12.4045H59.5353V18.4045ZM61.2458 12.4045H62.2778L62.3498 13.2085C62.5178 13.0005 62.7098 12.8285 62.9258 12.6925C63.1498 12.5485 63.3898 12.4485 63.6458 12.3925C63.9098 12.3365 64.1818 12.3405 64.4618 12.4045V13.4725C64.1978 13.4085 63.9418 13.4005 63.6938 13.4485C63.4458 13.4965 63.2218 13.6005 63.0218 13.7605C62.8298 13.9125 62.6738 14.1165 62.5538 14.3725C62.4338 14.6285 62.3738 14.9365 62.3738 15.2965V18.4045H61.2458V12.4045ZM69.2652 18.4045L69.1692 17.5285C68.9852 17.8325 68.7452 18.0685 68.4492 18.2365C68.1612 18.3965 67.7852 18.4765 67.3212 18.4765C66.8892 18.4765 66.5212 18.4085 66.2172 18.2725C65.9132 18.1285 65.6772 17.9325 65.5092 17.6845C65.3492 17.4285 65.2692 17.1325 65.2692 16.7965C65.2692 16.2925 65.4572 15.8765 65.8332 15.5485C66.2092 15.2125 66.7532 15.0045 67.4652 14.9245L69.1692 14.7325V14.2645C69.1692 14.0085 69.0652 13.7925 68.8572 13.6165C68.6492 13.4325 68.3492 13.3405 67.9572 13.3405C67.5892 13.3405 67.2772 13.4285 67.0212 13.6045C66.7652 13.7725 66.5932 14.0245 66.5052 14.3605L65.4972 14.0005C65.6492 13.4725 65.9452 13.0605 66.3852 12.7645C66.8332 12.4685 67.3732 12.3205 68.0052 12.3205C68.7572 12.3205 69.3292 12.5085 69.7212 12.8845C70.1132 13.2605 70.3092 13.7565 70.3092 14.3725V18.4045H69.2652ZM69.1692 15.6565L67.5252 15.8605C67.1732 15.9085 66.9092 16.0085 66.7332 16.1605C66.5572 16.3045 66.4692 16.4965 66.4692 16.7365C66.4692 16.9605 66.5532 17.1485 66.7212 17.3005C66.8972 17.4445 67.1412 17.5165 67.4532 17.5165C67.8372 17.5165 68.1572 17.4445 68.4132 17.3005C68.6692 17.1565 68.8572 16.9565 68.9772 16.7005C69.1052 16.4365 69.1692 16.1325 69.1692 15.7885V15.6565ZM75.1613 10.0045H76.3613V16.0885C76.3613 16.5685 76.2573 16.9885 76.0493 17.3485C75.8413 17.7085 75.5573 17.9885 75.1973 18.1885C74.8373 18.3885 74.4213 18.4885 73.9493 18.4885C73.3653 18.4885 72.8813 18.3485 72.4973 18.0685C72.1133 17.7805 71.8493 17.3805 71.7053 16.8685L72.7253 16.5205C72.7813 16.7045 72.8613 16.8685 72.9653 17.0125C73.0693 17.1565 73.2013 17.2725 73.3613 17.3605C73.5293 17.4405 73.7253 17.4805 73.9493 17.4805C74.2213 17.4805 74.4453 17.4165 74.6213 17.2885C74.7973 17.1605 74.9293 16.9965 75.0173 16.7965C75.1133 16.5885 75.1613 16.3685 75.1613 16.1365V10.0045ZM78.3008 12.4045H79.4408V18.4045H78.3008V12.4045ZM78.8768 11.3485C78.6608 11.3485 78.4808 11.2765 78.3368 11.1325C78.1928 10.9885 78.1208 10.8125 78.1208 10.6045C78.1208 10.3885 78.1928 10.2085 78.3368 10.0645C78.4808 9.91254 78.6608 9.83654 78.8768 9.83654C79.0848 9.83654 79.2608 9.91254 79.4048 10.0645C79.5568 10.2085 79.6328 10.3885 79.6328 10.6045C79.6328 10.8125 79.5568 10.9885 79.4048 11.1325C79.2608 11.2765 79.0848 11.3485 78.8768 11.3485ZM81.3318 12.4045H82.3638L82.4358 13.1005C82.6278 12.8605 82.8678 12.6725 83.1558 12.5365C83.4438 12.3925 83.7678 12.3205 84.1278 12.3205C84.5358 12.3205 84.9038 12.4125 85.2318 12.5965C85.5678 12.7725 85.8318 13.0365 86.0238 13.3885C86.2238 13.0365 86.5078 12.7725 86.8758 12.5965C87.2438 12.4125 87.6478 12.3205 88.0878 12.3205C88.5438 12.3205 88.9438 12.4205 89.2878 12.6205C89.6398 12.8125 89.9118 13.1005 90.1038 13.4845C90.2958 13.8685 90.3918 14.3485 90.3918 14.9245V18.4045H89.2518V15.0685C89.2518 14.5085 89.1318 14.0845 88.8918 13.7965C88.6518 13.5005 88.3078 13.3525 87.8598 13.3525C87.4038 13.3525 87.0438 13.5045 86.7798 13.8085C86.5158 14.1125 86.3838 14.5565 86.3838 15.1405V18.4045H85.2438V15.0685C85.2438 14.5085 85.1318 14.0845 84.9078 13.7965C84.6838 13.5005 84.3478 13.3525 83.8998 13.3525C83.4438 13.3525 83.0878 13.5045 82.8318 13.8085C82.5838 14.1125 82.4598 14.5565 82.4598 15.1405V18.4045H81.3318V12.4045ZM97.0236 18.4045H95.9916L95.9076 17.6965C95.7156 17.9525 95.4716 18.1485 95.1756 18.2845C94.8876 18.4205 94.5636 18.4885 94.2036 18.4885C93.7396 18.4885 93.3356 18.3925 92.9916 18.2005C92.6476 18.0005 92.3796 17.7125 92.1876 17.3365C92.0036 16.9525 91.9116 16.4765 91.9116 15.9085V12.4045H93.0516V15.7645C93.0516 16.3165 93.1636 16.7365 93.3876 17.0245C93.6196 17.3125 93.9676 17.4565 94.4316 17.4565C94.8876 17.4565 95.2436 17.3085 95.4996 17.0125C95.7636 16.7165 95.8956 16.2765 95.8956 15.6925V12.4045H97.0236V18.4045ZM99.4061 16.5085C99.4621 16.7485 99.5581 16.9365 99.6941 17.0725C99.8301 17.2085 99.9901 17.3085 100.174 17.3725C100.366 17.4285 100.566 17.4565 100.774 17.4565C101.134 17.4565 101.414 17.3845 101.614 17.2405C101.814 17.0965 101.914 16.9165 101.914 16.7005C101.914 16.5165 101.85 16.3725 101.722 16.2685C101.602 16.1565 101.438 16.0685 101.23 16.0045C101.03 15.9405 100.814 15.8805 100.582 15.8245C100.374 15.7685 100.146 15.7045 99.8981 15.6325C99.6581 15.5605 99.4301 15.4645 99.2141 15.3445C99.0061 15.2165 98.8341 15.0565 98.6981 14.8645C98.5621 14.6645 98.4941 14.4125 98.4941 14.1085C98.4941 13.7485 98.5901 13.4365 98.7821 13.1725C98.9821 12.9005 99.2541 12.6925 99.5981 12.5485C99.9501 12.3965 100.346 12.3205 100.786 12.3205C101.298 12.3205 101.746 12.4325 102.13 12.6565C102.522 12.8725 102.806 13.2005 102.982 13.6405L101.962 13.9765C101.906 13.8245 101.814 13.7005 101.686 13.6045C101.558 13.5085 101.41 13.4445 101.242 13.4125C101.082 13.3725 100.922 13.3525 100.762 13.3525C100.458 13.3525 100.206 13.4125 100.006 13.5325C99.8061 13.6525 99.7061 13.8285 99.7061 14.0605C99.7061 14.1885 99.7381 14.2965 99.8021 14.3845C99.8661 14.4645 99.9541 14.5325 100.066 14.5885C100.186 14.6365 100.326 14.6805 100.486 14.7205C100.646 14.7605 100.818 14.8045 101.002 14.8525C101.242 14.9245 101.486 15.0045 101.734 15.0925C101.982 15.1725 102.21 15.2765 102.418 15.4045C102.626 15.5325 102.794 15.7005 102.922 15.9085C103.05 16.1165 103.118 16.3725 103.126 16.6765C103.126 17.0285 103.026 17.3405 102.826 17.6125C102.634 17.8845 102.358 18.1005 101.998 18.2605C101.646 18.4125 101.226 18.4885 100.738 18.4885C100.146 18.4885 99.6421 18.3565 99.2261 18.0925C98.8101 17.8285 98.5301 17.4205 98.3861 16.8685L99.4061 16.5085ZM108.592 12.4045H109.768L106.288 20.8045H105.172L106.228 18.2845L103.852 12.4045H105.1L106.84 16.9525L108.592 12.4045ZM113.479 18.4885C112.911 18.4885 112.399 18.3645 111.943 18.1165C111.495 17.8605 111.143 17.5045 110.887 17.0485C110.631 16.5845 110.503 16.0405 110.503 15.4165C110.503 14.7845 110.635 14.2365 110.899 13.7725C111.163 13.3085 111.523 12.9525 111.979 12.7045C112.435 12.4485 112.947 12.3205 113.515 12.3205C114.083 12.3205 114.595 12.4485 115.051 12.7045C115.515 12.9525 115.879 13.3085 116.143 13.7725C116.407 14.2285 116.539 14.7685 116.539 15.3925C116.539 16.0245 116.403 16.5725 116.131 17.0365C115.867 17.5005 115.503 17.8605 115.039 18.1165C114.575 18.3645 114.055 18.4885 113.479 18.4885ZM113.467 17.4565C113.787 17.4565 114.087 17.3845 114.367 17.2405C114.647 17.0885 114.875 16.8605 115.051 16.5565C115.235 16.2525 115.327 15.8645 115.327 15.3925C115.327 14.9285 115.239 14.5485 115.063 14.2525C114.895 13.9485 114.671 13.7245 114.391 13.5805C114.111 13.4285 113.811 13.3525 113.491 13.3525C113.179 13.3525 112.887 13.4285 112.615 13.5805C112.351 13.7245 112.135 13.9485 111.967 14.2525C111.799 14.5565 111.715 14.9445 111.715 15.4165C111.715 15.8805 111.795 16.2645 111.955 16.5685C112.123 16.8645 112.339 17.0885 112.603 17.2405C112.867 17.3845 113.155 17.4565 113.467 17.4565Z" fill="black"/>
<path d="M25.9995 9.35724L26.2284 7.74417C24.704 6.92715 22.3862 7.28862 20.9444 8.43141C20.104 9.09858 18.7509 11.291 17.5653 13.4052C17.6452 10.9882 17.6223 8.41556 17.2466 7.41391C16.6028 5.69729 14.803 4.20262 13.0725 4.12266L12.4325 5.62256L10.964 4.91344C9.71279 6.11167 9.33975 8.42124 9.98356 10.1379C10.3561 11.1311 12.0027 13.0563 13.6358 14.8116C11.3794 13.9883 8.96075 13.2162 7.89885 13.2567C6.06052 13.3268 4.06631 14.5614 3.43949 16.1736L4.66336 17.2496L3.52196 18.4162C4.26363 19.9769 6.34278 21.0533 8.18111 20.9832C9.25442 20.9422 11.6439 19.9691 13.8517 18.9642C12.3521 20.8692 10.8426 22.9587 10.5516 23.9892C10.0497 25.7546 10.61 28.0257 11.9555 29.1118L13.361 28.2789L14.1212 29.7191C15.84 29.4899 17.5108 27.8458 18.0126 26.0804C18.3053 25.0493 18.1175 22.4846 17.8417 20.0817C19.1957 22.086 20.7206 24.155 21.6143 24.7469C23.1435 25.7621 25.4836 25.9232 26.936 24.9784L26.5758 23.3901L28.1841 23.1081C28.4979 21.4074 27.4468 19.3204 25.9159 18.3058C25.0221 17.7138 22.5175 17.1087 20.1406 16.6383C22.4706 15.9645 24.9189 15.1482 25.7593 14.481C27.2011 13.3382 28.0782 11.1685 27.6266 9.50101L25.9995 9.35724ZM19.4855 16.3223C19.2232 16.4207 18.934 16.3137 18.7971 16.0823L17.7868 16.4612C17.8609 16.7258 17.8393 16.9974 17.7422 17.2377L18.428 17.548C18.5546 17.335 18.8218 17.2444 19.0519 17.3486C19.2983 17.46 19.4071 17.7501 19.2948 17.9961C19.1824 18.2421 18.8914 18.3513 18.645 18.2398C18.4148 18.1357 18.3077 17.8758 18.3856 17.6408L17.6998 17.3306C17.5818 17.5614 17.3904 17.7563 17.1414 17.8747L17.519 18.8814C17.7848 18.8336 18.0553 18.9784 18.1533 19.2397C18.2633 19.5331 18.1145 19.8621 17.8184 19.9731C17.5223 20.0842 17.1945 19.9359 17.0838 19.6408C16.9858 19.3795 17.0937 19.0909 17.326 18.9537L16.9485 17.947C16.683 18.0216 16.4107 18.0006 16.17 17.9043L15.8574 18.589C16.0706 18.7148 16.1608 18.981 16.0558 19.2108C15.9435 19.4568 15.6524 19.566 15.406 19.4545C15.1596 19.3431 15.0508 19.053 15.1632 18.807C15.2681 18.5772 15.5289 18.4698 15.7644 18.5469L16.077 17.8622C15.8458 17.745 15.6509 17.5546 15.5328 17.3066L14.5225 17.6855C14.5698 17.9505 14.424 18.2206 14.1617 18.319C13.8673 18.4294 13.5378 18.2817 13.4271 17.9866C13.3164 17.6916 13.4659 17.3643 13.762 17.2532C14.0243 17.1549 14.3134 17.2619 14.4504 17.4932L15.4607 17.1143C15.3865 16.8498 15.4082 16.5781 15.5053 16.3378L14.8195 16.0276C14.6929 16.2405 14.4257 16.3311 14.1956 16.227C13.9492 16.1155 13.8404 15.8255 13.9527 15.5795C14.0651 15.3335 14.3561 15.2243 14.6025 15.3358C14.8327 15.4399 14.9398 15.6998 14.8619 15.9348L15.5477 16.245C15.6657 16.0142 15.8571 15.8193 16.1061 15.7009L15.7285 14.6942C15.4627 14.742 15.1916 14.5955 15.0942 14.3358C14.9842 14.0424 15.133 13.7135 15.4291 13.6024C15.7252 13.4913 16.053 13.6396 16.1637 13.9347C16.2617 14.1961 16.1538 14.4847 15.9215 14.6218L16.299 15.6285C16.5644 15.554 16.8368 15.575 17.0775 15.6713L17.3901 14.9866C17.1769 14.8607 17.0867 14.5945 17.1916 14.3647C17.304 14.1187 17.5951 14.0096 17.8415 14.121C18.0879 14.2325 18.1967 14.5225 18.0843 14.7686C17.9794 14.9983 17.7186 15.1058 17.4831 15.0287L17.1705 15.7133C17.4017 15.8305 17.5966 16.0209 17.7147 16.269L18.725 15.8901C18.6777 15.6251 18.8235 15.355 19.0858 15.2566C19.3802 15.1462 19.7097 15.2938 19.8204 15.5889C19.931 15.884 19.7816 16.2113 19.4855 16.3223Z" fill="#231F20"/>
<path d="M64.2789 25.8665H64.9149V30.6665C64.9149 31.4265 64.7509 32.0745 64.4229 32.6105C64.0949 33.1465 63.6189 33.5545 62.9949 33.8345C62.3789 34.1225 61.6229 34.2665 60.7269 34.2665L60.6189 33.6305C61.7949 33.6225 62.6909 33.3665 63.3069 32.8625C63.9229 32.3585 64.2309 31.6265 64.2309 30.6665V30.4505L64.2909 30.4745C64.1229 30.8745 63.8469 31.2185 63.4629 31.5065C63.0789 31.7945 62.5749 31.9425 61.9509 31.9505C61.3909 31.9505 60.9029 31.8265 60.4869 31.5785C60.0789 31.3225 59.7589 30.9625 59.5269 30.4985C59.3029 30.0345 59.1909 29.4905 59.1909 28.8665C59.1909 28.2425 59.3029 27.7025 59.5269 27.2465C59.7589 26.7825 60.0789 26.4225 60.4869 26.1665C60.9029 25.9105 61.3909 25.7825 61.9509 25.7825C62.3509 25.7825 62.6989 25.8465 62.9949 25.9745C63.2989 26.1025 63.5509 26.2745 63.7509 26.4905C63.9589 26.6985 64.1189 26.9305 64.2309 27.1865L64.2789 25.8665ZM59.9229 28.8665C59.9229 29.6185 60.1149 30.2145 60.4989 30.6545C60.8909 31.0945 61.4229 31.3145 62.0949 31.3145C62.5029 31.3145 62.8669 31.2145 63.1869 31.0145C63.5149 30.8145 63.7709 30.5305 63.9549 30.1625C64.1389 29.7945 64.2309 29.3625 64.2309 28.8665C64.2309 28.3625 64.1389 27.9305 63.9549 27.5705C63.7709 27.2025 63.5149 26.9185 63.1869 26.7185C62.8669 26.5185 62.5029 26.4185 62.0949 26.4185C61.4309 26.4185 60.9029 26.6425 60.5109 27.0905C60.1189 27.5305 59.9229 28.1225 59.9229 28.8665ZM66.8171 25.8665H67.4531L67.4891 26.9345C67.6251 26.6865 67.8091 26.4705 68.0411 26.2865C68.2731 26.1025 68.5371 25.9705 68.8331 25.8905C69.1291 25.8105 69.4531 25.8025 69.8051 25.8665V26.5505C69.4611 26.4785 69.1491 26.4825 68.8691 26.5625C68.5891 26.6345 68.3451 26.7665 68.1371 26.9585C67.9371 27.1505 67.7811 27.3905 67.6691 27.6785C67.5571 27.9665 67.5011 28.2945 67.5011 28.6625V31.8665H66.8171V25.8665ZM73.6267 31.9505C73.0667 31.9505 72.5627 31.8265 72.1147 31.5785C71.6747 31.3305 71.3267 30.9785 71.0707 30.5225C70.8227 30.0585 70.6987 29.5105 70.6987 28.8785C70.6987 28.2385 70.8267 27.6865 71.0827 27.2225C71.3387 26.7585 71.6867 26.4025 72.1267 26.1545C72.5747 25.9065 73.0827 25.7825 73.6507 25.7825C74.2107 25.7825 74.7107 25.9065 75.1507 26.1545C75.5987 26.4025 75.9507 26.7585 76.2067 27.2225C76.4627 27.6785 76.5907 28.2225 76.5907 28.8545C76.5907 29.4945 76.4587 30.0465 76.1947 30.5105C75.9387 30.9745 75.5867 31.3305 75.1387 31.5785C74.6987 31.8265 74.1947 31.9505 73.6267 31.9505ZM73.6267 31.3025C74.0107 31.3025 74.3707 31.2185 74.7067 31.0505C75.0507 30.8745 75.3267 30.6065 75.5347 30.2465C75.7507 29.8865 75.8587 29.4265 75.8587 28.8665C75.8587 28.3065 75.7507 27.8465 75.5347 27.4865C75.3267 27.1265 75.0547 26.8625 74.7187 26.6945C74.3827 26.5185 74.0227 26.4305 73.6387 26.4305C73.2547 26.4305 72.8947 26.5185 72.5587 26.6945C72.2227 26.8625 71.9507 27.1265 71.7427 27.4865C71.5347 27.8465 71.4307 28.3065 71.4307 28.8665C71.4307 29.4265 71.5347 29.8865 71.7427 30.2465C71.9507 30.6065 72.2187 30.8745 72.5467 31.0505C72.8827 31.2185 73.2427 31.3025 73.6267 31.3025ZM82.9617 31.8665H82.3257L82.2897 30.7985C82.1217 31.1665 81.8737 31.4505 81.5457 31.6505C81.2177 31.8505 80.8097 31.9505 80.3217 31.9505C79.8737 31.9505 79.4737 31.8585 79.1217 31.6745C78.7777 31.4825 78.5097 31.1945 78.3177 30.8105C78.1257 30.4185 78.0297 29.9265 78.0297 29.3345V25.8665H78.7017V29.2745C78.7017 29.9545 78.8497 30.4665 79.1457 30.8105C79.4497 31.1465 79.8777 31.3145 80.4297 31.3145C80.9977 31.3145 81.4457 31.1305 81.7737 30.7625C82.1097 30.3945 82.2777 29.8345 82.2777 29.0825V25.8665H82.9617V31.8665ZM85.4879 30.4745L85.5479 30.4505V34.2665H84.8639V25.8665H85.4999L85.5479 27.1865C85.7159 26.7945 85.9879 26.4625 86.3639 26.1905C86.7479 25.9185 87.2359 25.7825 87.828 25.7825C88.364 25.7825 88.8399 25.9105 89.2559 26.1665C89.6719 26.4145 89.9959 26.7705 90.2279 27.2345C90.468 27.6905 90.588 28.2345 90.588 28.8665C90.588 29.4905 90.472 30.0345 90.2399 30.4985C90.0159 30.9545 89.6959 31.3105 89.2799 31.5665C88.8719 31.8225 88.3879 31.9505 87.828 31.9505C87.2199 31.9505 86.7159 31.8105 86.3159 31.5305C85.9239 31.2425 85.6479 30.8905 85.4879 30.4745ZM89.8559 28.8665C89.8559 28.1145 89.66 27.5185 89.268 27.0785C88.876 26.6385 88.352 26.4185 87.6959 26.4185C87.2799 26.4185 86.9079 26.5185 86.5799 26.7185C86.2519 26.9185 85.9959 27.2025 85.8119 27.5705C85.6359 27.9305 85.5479 28.3625 85.5479 28.8665C85.5479 29.3625 85.6399 29.7945 85.8239 30.1625C86.0079 30.5305 86.2599 30.8145 86.5799 31.0145C86.9079 31.2145 87.2839 31.3145 87.7079 31.3145C88.3639 31.3145 88.8839 31.0945 89.268 30.6545C89.66 30.2145 89.8559 29.6185 89.8559 28.8665Z" fill="black"/>
</svg>
