<svg width="173" height="54" viewBox="0 0 173 54" fill="none" xmlns="http://www.w3.org/2000/svg">
<path d="M42.4515 15.0868L42.6755 12.4337C40.1125 11.2419 36.3643 12.0465 34.1178 14.0447C32.8085 15.2112 30.8039 18.9138 29.0654 22.4732C28.9718 18.5223 28.6959 14.3268 27.9902 12.7273C26.7807 9.98615 23.7056 7.71427 20.8746 7.74419L19.9694 10.2507L17.5077 9.22986C15.5773 11.3008 15.1827 15.1037 16.3923 17.8449C17.0921 19.4309 19.9572 22.4195 22.7844 25.1321C19.0266 23.9979 15.0088 22.9623 13.2799 23.1268C10.287 23.4116 7.14768 25.6107 6.27438 28.2994L8.37097 29.9414L6.61681 31.9507C7.97156 34.4284 11.4636 35.9919 14.4566 35.7071C16.204 35.5409 20.0125 33.7317 23.5215 31.8874C21.2514 35.1345 18.9822 38.6837 18.6028 40.392C17.9476 43.319 19.0723 46.9726 21.3682 48.62L23.5843 47.1307L24.9581 49.4101C27.7413 48.8769 30.3149 46.0395 30.9701 43.1125C31.3521 41.403 30.8079 37.2359 30.1353 33.3409C32.5301 36.4856 35.2099 39.7201 36.723 40.603C39.3122 42.1177 43.1451 42.1636 45.4273 40.4875L44.6923 37.9294L47.2903 37.3202C47.6447 34.5163 45.7364 31.2085 43.1444 29.6949C41.6314 28.812 37.4887 28.0567 33.5669 27.5096C37.3061 26.1942 41.2251 24.6355 42.5344 23.469C44.781 21.4708 46.0111 17.8494 45.1196 15.1706L42.4515 15.0868ZM32.4688 27.0548C32.0499 27.2396 31.5683 27.0918 31.3233 26.727L29.7101 27.4388C29.8556 27.8636 29.8454 28.3088 29.7093 28.7099L30.8569 29.1525C31.0439 28.7934 31.4714 28.6208 31.8565 28.7693C32.2689 28.9284 32.4732 29.3915 32.3128 29.8033C32.1523 30.2152 31.6875 30.4202 31.2751 30.2612C30.89 30.1127 30.6911 29.6986 30.7964 29.3079L29.6487 28.8653C29.4775 29.2529 29.1833 29.5886 28.7881 29.8048L29.4974 31.4124C29.9267 31.3098 30.3814 31.5209 30.5656 31.9383C30.7723 32.4068 30.56 32.9573 30.0871 33.166C29.6142 33.3746 29.0657 33.1631 28.8578 32.6918C28.6736 32.2745 28.823 31.7936 29.1893 31.5483L28.48 29.9407C28.0538 30.087 27.6076 30.078 27.2059 29.9432L26.7592 31.0893C27.1188 31.2749 27.2906 31.7009 27.1407 32.0855C26.9802 32.4973 26.5154 32.7024 26.1031 32.5434C25.6907 32.3843 25.4863 31.9212 25.6468 31.5094C25.7967 31.1247 26.2123 30.9253 26.6036 31.0293L27.0503 29.8832C26.6622 29.7134 26.3265 29.4208 26.1108 29.027L24.4975 29.7389C24.5992 30.1669 24.3864 30.6211 23.9676 30.8059C23.4974 31.0134 22.9462 30.803 22.7382 30.3318C22.5303 29.8606 22.7438 29.3128 23.2167 29.1041C23.6355 28.9193 24.1172 29.0671 24.3621 29.4319L25.9753 28.7201C25.8298 28.2953 25.84 27.8501 25.9762 27.449L24.8285 27.0064C24.6416 27.3655 24.2141 27.5381 23.8289 27.3895C23.4166 27.2305 23.2122 26.7673 23.3727 26.3555C23.5332 25.9437 23.998 25.7386 24.4103 25.8977C24.7955 26.0462 24.9943 26.4603 24.8891 26.851L26.0367 27.2936C26.2079 26.906 26.5021 26.5703 26.8974 26.3541L26.1881 24.7465C25.7588 24.8491 25.3028 24.6353 25.1199 24.2206C24.9131 23.7521 25.1254 23.2016 25.5983 22.9929C26.0712 22.7843 26.6197 22.9958 26.8277 23.467C27.0118 23.8844 26.8624 24.3653 26.4961 24.6106L27.2054 26.2181C27.6316 26.0719 28.0779 26.0809 28.4796 26.2157L28.9262 25.0696C28.5667 24.884 28.3948 24.458 28.5447 24.0734C28.7052 23.6616 29.17 23.4565 29.5824 23.6155C29.9948 23.7746 30.1991 24.2377 30.0386 24.6495C29.8887 25.0341 29.4731 25.2336 29.0818 25.1296L28.6352 26.2757C29.0232 26.4455 29.3589 26.7381 29.5747 27.1319L31.1879 26.42C31.0862 25.992 31.299 25.5378 31.7179 25.353C32.188 25.1455 32.7393 25.3559 32.9472 25.8271C33.1551 26.2983 32.9417 26.8461 32.4688 27.0548Z" fill="white"/>
<path d="M58.1898 25.8535C58.2538 26.1521 58.3818 26.4295 58.5738 26.6855C58.7765 26.9415 59.0485 27.1495 59.3898 27.3095C59.7312 27.4695 60.1525 27.5495 60.6538 27.5495C61.4005 27.5495 61.9498 27.3788 62.3018 27.0375C62.6645 26.6855 62.8458 26.2748 62.8458 25.8055C62.8458 25.4215 62.7338 25.1068 62.5098 24.8615C62.2965 24.6055 61.9978 24.3921 61.6138 24.2215C61.2405 24.0401 60.8085 23.8801 60.3178 23.7415C59.8912 23.6135 59.4698 23.4801 59.0538 23.3415C58.6485 23.1921 58.2805 23.0108 57.9498 22.7975C57.6192 22.5735 57.3578 22.2908 57.1658 21.9495C56.9738 21.5975 56.8778 21.1601 56.8778 20.6375C56.8778 19.9868 57.0325 19.4268 57.3418 18.9575C57.6512 18.4881 58.0832 18.1308 58.6378 17.8855C59.2032 17.6295 59.8538 17.5015 60.5898 17.5015C61.2085 17.5015 61.7632 17.5921 62.2538 17.7735C62.7445 17.9441 63.1552 18.1948 63.4858 18.5255C63.8272 18.8455 64.0778 19.2348 64.2378 19.6935L62.7818 20.2215C62.7178 19.9868 62.5845 19.7681 62.3818 19.5655C62.1792 19.3521 61.9232 19.1815 61.6138 19.0535C61.3045 18.9255 60.9578 18.8615 60.5738 18.8615C60.1792 18.8508 59.8218 18.9148 59.5018 19.0535C59.1925 19.1815 58.9418 19.3681 58.7498 19.6135C58.5685 19.8588 58.4778 20.1521 58.4778 20.4935C58.4778 20.8668 58.5845 21.1601 58.7978 21.3735C59.0112 21.5868 59.2938 21.7628 59.6458 21.9015C60.0085 22.0401 60.4032 22.1735 60.8298 22.3015C61.2778 22.4401 61.7152 22.5895 62.1418 22.7495C62.5685 22.9095 62.9525 23.1121 63.2938 23.3575C63.6458 23.6028 63.9285 23.9121 64.1418 24.2855C64.3552 24.6481 64.4618 25.1068 64.4618 25.6615C64.4618 26.2588 64.3232 26.8028 64.0458 27.2935C63.7685 27.7841 63.3472 28.1788 62.7818 28.4775C62.2272 28.7761 61.5285 28.9255 60.6858 28.9255C59.9925 28.9255 59.3685 28.8188 58.8138 28.6055C58.2592 28.3921 57.8005 28.0988 57.4378 27.7255C57.0858 27.3415 56.8512 26.8988 56.7338 26.3975L58.1898 25.8535ZM71.2478 28.8135L71.1198 27.6455C70.8745 28.0508 70.5545 28.3655 70.1598 28.5895C69.7758 28.8028 69.2745 28.9095 68.6558 28.9095C68.0798 28.9095 67.5892 28.8188 67.1838 28.6375C66.7785 28.4455 66.4638 28.1841 66.2398 27.8535C66.0265 27.5121 65.9198 27.1175 65.9198 26.6695C65.9198 25.9975 66.1705 25.4428 66.6718 25.0055C67.1732 24.5575 67.8985 24.2801 68.8478 24.1735L71.1198 23.9175V23.2935C71.1198 22.9521 70.9812 22.6641 70.7038 22.4295C70.4265 22.1841 70.0265 22.0615 69.5038 22.0615C69.0132 22.0615 68.5972 22.1788 68.2558 22.4135C67.9145 22.6375 67.6852 22.9735 67.5678 23.4215L66.2238 22.9415C66.4265 22.2375 66.8212 21.6881 67.4078 21.2935C68.0052 20.8988 68.7252 20.7015 69.5678 20.7015C70.5705 20.7015 71.3332 20.9521 71.8558 21.4535C72.3785 21.9548 72.6398 22.6161 72.6398 23.4375V28.8135H71.2478ZM71.1198 25.1495L68.9278 25.4215C68.4585 25.4855 68.1065 25.6188 67.8718 25.8215C67.6372 26.0135 67.5198 26.2695 67.5198 26.5895C67.5198 26.8881 67.6318 27.1388 67.8558 27.3415C68.0905 27.5335 68.4158 27.6295 68.8318 27.6295C69.3438 27.6295 69.7705 27.5335 70.1118 27.3415C70.4532 27.1495 70.7038 26.8828 70.8638 26.5415C71.0345 26.1895 71.1198 25.7841 71.1198 25.3255V25.1495ZM74.8053 17.2935H76.3253V24.1575H76.9813L79.9733 20.8135H82.0213L78.3093 24.8135L82.0373 28.8135H79.9733L76.9813 25.4535H76.3253V28.8135H74.8053V17.2935ZM90.1027 28.8135H88.7267L88.6147 27.8695C88.3587 28.2108 88.0334 28.4721 87.6387 28.6535C87.2547 28.8348 86.8227 28.9255 86.3427 28.9255C85.724 28.9255 85.1854 28.7975 84.7267 28.5415C84.268 28.2748 83.9107 27.8908 83.6547 27.3895C83.4094 26.8775 83.2867 26.2428 83.2867 25.4855V20.8135H84.8067V25.2935C84.8067 26.0295 84.956 26.5895 85.2547 26.9735C85.564 27.3575 86.028 27.5495 86.6467 27.5495C87.2547 27.5495 87.7294 27.3521 88.0707 26.9575C88.4227 26.5628 88.5987 25.9761 88.5987 25.1975V20.8135H90.1027V28.8135ZM92.3834 20.8135H93.7594L93.8554 21.8855C94.0794 21.6081 94.3354 21.3788 94.6234 21.1975C94.9221 21.0055 95.2421 20.8721 95.5834 20.7975C95.9354 20.7228 96.2981 20.7281 96.6714 20.8135V22.2375C96.3194 22.1521 95.9781 22.1415 95.6474 22.2055C95.3168 22.2695 95.0181 22.4081 94.7514 22.6215C94.4954 22.8241 94.2874 23.0961 94.1274 23.4375C93.9674 23.7788 93.8874 24.1895 93.8874 24.6695V28.8135H92.3834V20.8135ZM103.076 28.8135L102.948 27.6455C102.703 28.0508 102.383 28.3655 101.988 28.5895C101.604 28.8028 101.103 28.9095 100.484 28.9095C99.9079 28.9095 99.4173 28.8188 99.0119 28.6375C98.6066 28.4455 98.2919 28.1841 98.0679 27.8535C97.8546 27.5121 97.7479 27.1175 97.7479 26.6695C97.7479 25.9975 97.9986 25.4428 98.4999 25.0055C99.0013 24.5575 99.7266 24.2801 100.676 24.1735L102.948 23.9175V23.2935C102.948 22.9521 102.809 22.6641 102.532 22.4295C102.255 22.1841 101.855 22.0615 101.332 22.0615C100.841 22.0615 100.425 22.1788 100.084 22.4135C99.7426 22.6375 99.5133 22.9735 99.3959 23.4215L98.0519 22.9415C98.2546 22.2375 98.6493 21.6881 99.2359 21.2935C99.8333 20.8988 100.553 20.7015 101.396 20.7015C102.399 20.7015 103.161 20.9521 103.684 21.4535C104.207 21.9548 104.468 22.6161 104.468 23.4375V28.8135H103.076ZM102.948 25.1495L100.756 25.4215C100.287 25.4855 99.9346 25.6188 99.6999 25.8215C99.4653 26.0135 99.3479 26.2695 99.3479 26.5895C99.3479 26.8881 99.4599 27.1388 99.6839 27.3415C99.9186 27.5335 100.244 27.6295 100.66 27.6295C101.172 27.6295 101.599 27.5335 101.94 27.3415C102.281 27.1495 102.532 26.8828 102.692 26.5415C102.863 26.1895 102.948 25.7841 102.948 25.3255V25.1495ZM110.937 17.6135H112.537V25.7255C112.537 26.3655 112.399 26.9255 112.121 27.4055C111.844 27.8855 111.465 28.2588 110.985 28.5255C110.505 28.7921 109.951 28.9255 109.321 28.9255C108.543 28.9255 107.897 28.7388 107.385 28.3655C106.873 27.9815 106.521 27.4481 106.329 26.7655L107.689 26.3015C107.764 26.5468 107.871 26.7655 108.009 26.9575C108.148 27.1495 108.324 27.3041 108.537 27.4215C108.761 27.5281 109.023 27.5815 109.321 27.5815C109.684 27.5815 109.983 27.4961 110.217 27.3255C110.452 27.1548 110.628 26.9361 110.745 26.6695C110.873 26.3921 110.937 26.0988 110.937 25.7895V17.6135ZM115.123 20.8135H116.643V28.8135H115.123V20.8135ZM115.891 19.4055C115.603 19.4055 115.363 19.3095 115.171 19.1175C114.979 18.9255 114.883 18.6908 114.883 18.4135C114.883 18.1255 114.979 17.8855 115.171 17.6935C115.363 17.4908 115.603 17.3895 115.891 17.3895C116.169 17.3895 116.403 17.4908 116.595 17.6935C116.798 17.8855 116.899 18.1255 116.899 18.4135C116.899 18.6908 116.798 18.9255 116.595 19.1175C116.403 19.3095 116.169 19.4055 115.891 19.4055ZM119.165 20.8135H120.541L120.637 21.7415C120.893 21.4215 121.213 21.1708 121.597 20.9895C121.981 20.7975 122.413 20.7015 122.893 20.7015C123.437 20.7015 123.927 20.8241 124.365 21.0695C124.813 21.3041 125.165 21.6561 125.421 22.1255C125.687 21.6561 126.066 21.3041 126.557 21.0695C127.047 20.8241 127.586 20.7015 128.173 20.7015C128.781 20.7015 129.314 20.8348 129.773 21.1015C130.242 21.3575 130.605 21.7415 130.861 22.2535C131.117 22.7655 131.245 23.4055 131.245 24.1735V28.8135H129.725V24.3655C129.725 23.6188 129.565 23.0535 129.245 22.6695C128.925 22.2748 128.466 22.0775 127.869 22.0775C127.261 22.0775 126.781 22.2801 126.429 22.6855C126.077 23.0908 125.901 23.6828 125.901 24.4615V28.8135H124.381V24.3655C124.381 23.6188 124.231 23.0535 123.933 22.6695C123.634 22.2748 123.186 22.0775 122.589 22.0775C121.981 22.0775 121.506 22.2801 121.165 22.6855C120.834 23.0908 120.669 23.6828 120.669 24.4615V28.8135H119.165V20.8135ZM140.087 28.8135H138.711L138.599 27.8695C138.343 28.2108 138.018 28.4721 137.623 28.6535C137.239 28.8348 136.807 28.9255 136.327 28.9255C135.708 28.9255 135.17 28.7975 134.711 28.5415C134.252 28.2748 133.895 27.8908 133.639 27.3895C133.394 26.8775 133.271 26.2428 133.271 25.4855V20.8135H134.791V25.2935C134.791 26.0295 134.94 26.5895 135.239 26.9735C135.548 27.3575 136.012 27.5495 136.631 27.5495C137.239 27.5495 137.714 27.3521 138.055 26.9575C138.407 26.5628 138.583 25.9761 138.583 25.1975V20.8135H140.087V28.8135ZM143.264 26.2855C143.338 26.6055 143.466 26.8561 143.648 27.0375C143.829 27.2188 144.042 27.3521 144.288 27.4375C144.544 27.5121 144.81 27.5495 145.088 27.5495C145.568 27.5495 145.941 27.4535 146.208 27.2615C146.474 27.0695 146.608 26.8295 146.608 26.5415C146.608 26.2961 146.522 26.1041 146.352 25.9655C146.192 25.8161 145.973 25.6988 145.696 25.6135C145.429 25.5281 145.141 25.4481 144.832 25.3735C144.554 25.2988 144.25 25.2135 143.92 25.1175C143.6 25.0215 143.296 24.8935 143.008 24.7335C142.73 24.5628 142.501 24.3495 142.32 24.0935C142.138 23.8268 142.048 23.4908 142.048 23.0855C142.048 22.6055 142.176 22.1895 142.432 21.8375C142.698 21.4748 143.061 21.1975 143.52 21.0055C143.989 20.8028 144.517 20.7015 145.104 20.7015C145.786 20.7015 146.384 20.8508 146.896 21.1495C147.418 21.4375 147.797 21.8748 148.032 22.4615L146.672 22.9095C146.597 22.7068 146.474 22.5415 146.304 22.4135C146.133 22.2855 145.936 22.2001 145.712 22.1575C145.498 22.1041 145.285 22.0775 145.072 22.0775C144.666 22.0775 144.33 22.1575 144.064 22.3175C143.797 22.4775 143.664 22.7121 143.664 23.0215C143.664 23.1921 143.706 23.3361 143.792 23.4535C143.877 23.5601 143.994 23.6508 144.144 23.7255C144.304 23.7895 144.49 23.8481 144.704 23.9015C144.917 23.9548 145.146 24.0135 145.392 24.0775C145.712 24.1735 146.037 24.2801 146.368 24.3975C146.698 24.5041 147.002 24.6428 147.28 24.8135C147.557 24.9841 147.781 25.2081 147.952 25.4855C148.122 25.7628 148.213 26.1041 148.224 26.5095C148.224 26.9788 148.09 27.3948 147.824 27.7575C147.568 28.1201 147.2 28.4081 146.72 28.6215C146.25 28.8241 145.69 28.9255 145.04 28.9255C144.25 28.9255 143.578 28.7495 143.024 28.3975C142.469 28.0455 142.096 27.5015 141.904 26.7655L143.264 26.2855ZM155.511 20.8135H157.079L152.439 32.0135H150.951L152.359 28.6535L149.191 20.8135H150.855L153.175 26.8775L155.511 20.8135ZM162.028 28.9255C161.271 28.9255 160.588 28.7601 159.98 28.4295C159.383 28.0881 158.913 27.6135 158.572 27.0055C158.231 26.3868 158.06 25.6615 158.06 24.8295C158.06 23.9868 158.236 23.2561 158.588 22.6375C158.94 22.0188 159.42 21.5441 160.028 21.2135C160.636 20.8721 161.319 20.7015 162.076 20.7015C162.833 20.7015 163.516 20.8721 164.124 21.2135C164.743 21.5441 165.228 22.0188 165.58 22.6375C165.932 23.2455 166.108 23.9655 166.108 24.7975C166.108 25.6401 165.927 26.3708 165.564 26.9895C165.212 27.6081 164.727 28.0881 164.108 28.4295C163.489 28.7601 162.796 28.9255 162.028 28.9255ZM162.012 27.5495C162.439 27.5495 162.839 27.4535 163.212 27.2615C163.585 27.0588 163.889 26.7548 164.124 26.3495C164.369 25.9441 164.492 25.4268 164.492 24.7975C164.492 24.1788 164.375 23.6721 164.14 23.2775C163.916 22.8721 163.617 22.5735 163.244 22.3815C162.871 22.1788 162.471 22.0775 162.044 22.0775C161.628 22.0775 161.239 22.1788 160.876 22.3815C160.524 22.5735 160.236 22.8721 160.012 23.2775C159.788 23.6828 159.676 24.2001 159.676 24.8295C159.676 25.4481 159.783 25.9601 159.996 26.3655C160.22 26.7601 160.508 27.0588 160.86 27.2615C161.212 27.4535 161.596 27.5495 162.012 27.5495Z" fill="white"/>
<path d="M96.2444 37.8135H97.0924V44.2135C97.0924 45.2268 96.8737 46.0908 96.4364 46.8055C95.999 47.5201 95.3644 48.0641 94.5324 48.4375C93.711 48.8215 92.703 49.0135 91.5084 49.0135L91.3644 48.1655C92.9324 48.1548 94.127 47.8135 94.9484 47.1415C95.7697 46.4695 96.1804 45.4935 96.1804 44.2135V43.9255L96.2604 43.9575C96.0364 44.4908 95.6684 44.9495 95.1564 45.3335C94.6444 45.7175 93.9724 45.9148 93.1404 45.9255C92.3937 45.9255 91.743 45.7601 91.1884 45.4295C90.6444 45.0881 90.2177 44.6081 89.9084 43.9895C89.6097 43.3708 89.4604 42.6455 89.4604 41.8135C89.4604 40.9815 89.6097 40.2615 89.9084 39.6535C90.2177 39.0348 90.6444 38.5548 91.1884 38.2135C91.743 37.8721 92.3937 37.7015 93.1404 37.7015C93.6737 37.7015 94.1377 37.7868 94.5324 37.9575C94.9377 38.1281 95.2737 38.3575 95.5404 38.6455C95.8177 38.9228 96.031 39.2321 96.1804 39.5735L96.2444 37.8135ZM90.4364 41.8135C90.4364 42.8161 90.6924 43.6108 91.2044 44.1975C91.727 44.7841 92.4364 45.0775 93.3324 45.0775C93.8764 45.0775 94.3617 44.9441 94.7884 44.6775C95.2257 44.4108 95.567 44.0321 95.8124 43.5415C96.0577 43.0508 96.1804 42.4748 96.1804 41.8135C96.1804 41.1415 96.0577 40.5655 95.8124 40.0855C95.567 39.5948 95.2257 39.2161 94.7884 38.9495C94.3617 38.6828 93.8764 38.5495 93.3324 38.5495C92.447 38.5495 91.743 38.8481 91.2204 39.4455C90.6977 40.0321 90.4364 40.8215 90.4364 41.8135ZM99.6286 37.8135H100.477L100.525 39.2375C100.706 38.9068 100.951 38.6188 101.261 38.3735C101.57 38.1281 101.922 37.9521 102.317 37.8455C102.711 37.7388 103.143 37.7281 103.613 37.8135V38.7255C103.154 38.6295 102.738 38.6348 102.365 38.7415C101.991 38.8375 101.666 39.0135 101.389 39.2695C101.122 39.5255 100.914 39.8455 100.765 40.2295C100.615 40.6135 100.541 41.0508 100.541 41.5415V45.8135H99.6286V37.8135ZM108.708 45.9255C107.961 45.9255 107.289 45.7601 106.692 45.4295C106.105 45.0988 105.641 44.6295 105.3 44.0215C104.969 43.4028 104.804 42.6721 104.804 41.8295C104.804 40.9761 104.975 40.2401 105.316 39.6215C105.657 39.0028 106.121 38.5281 106.708 38.1975C107.305 37.8668 107.983 37.7015 108.74 37.7015C109.487 37.7015 110.153 37.8668 110.74 38.1975C111.337 38.5281 111.807 39.0028 112.148 39.6215C112.489 40.2295 112.66 40.9548 112.66 41.7975C112.66 42.6508 112.484 43.3868 112.132 44.0055C111.791 44.6241 111.321 45.0988 110.724 45.4295C110.137 45.7601 109.465 45.9255 108.708 45.9255ZM108.708 45.0615C109.22 45.0615 109.7 44.9495 110.148 44.7255C110.607 44.4908 110.975 44.1335 111.252 43.6535C111.54 43.1735 111.684 42.5601 111.684 41.8135C111.684 41.0668 111.54 40.4535 111.252 39.9735C110.975 39.4935 110.612 39.1415 110.164 38.9175C109.716 38.6828 109.236 38.5655 108.724 38.5655C108.212 38.5655 107.732 38.6828 107.284 38.9175C106.836 39.1415 106.473 39.4935 106.196 39.9735C105.919 40.4535 105.78 41.0668 105.78 41.8135C105.78 42.5601 105.919 43.1735 106.196 43.6535C106.473 44.1335 106.831 44.4908 107.268 44.7255C107.716 44.9495 108.196 45.0615 108.708 45.0615ZM121.155 45.8135H120.307L120.259 44.3895C120.035 44.8801 119.704 45.2588 119.267 45.5255C118.829 45.7921 118.285 45.9255 117.635 45.9255C117.037 45.9255 116.504 45.8028 116.035 45.5575C115.576 45.3015 115.219 44.9175 114.963 44.4055C114.707 43.8828 114.579 43.2268 114.579 42.4375V37.8135H115.475V42.3575C115.475 43.2641 115.672 43.9468 116.067 44.4055C116.472 44.8535 117.043 45.0775 117.779 45.0775C118.536 45.0775 119.133 44.8321 119.571 44.3415C120.019 43.8508 120.243 43.1041 120.243 42.1015V37.8135H121.155V45.8135ZM124.523 43.9575L124.603 43.9255V49.0135H123.691V37.8135H124.539L124.603 39.5735C124.827 39.0508 125.19 38.6081 125.691 38.2455C126.203 37.8828 126.854 37.7015 127.643 37.7015C128.358 37.7015 128.992 37.8721 129.547 38.2135C130.102 38.5441 130.534 39.0188 130.843 39.6375C131.163 40.2455 131.323 40.9708 131.323 41.8135C131.323 42.6455 131.168 43.3708 130.859 43.9895C130.56 44.5975 130.134 45.0721 129.579 45.4135C129.035 45.7548 128.39 45.9255 127.643 45.9255C126.832 45.9255 126.16 45.7388 125.627 45.3655C125.104 44.9815 124.736 44.5121 124.523 43.9575ZM130.347 41.8135C130.347 40.8108 130.086 40.0161 129.563 39.4295C129.04 38.8428 128.342 38.5495 127.467 38.5495C126.912 38.5495 126.416 38.6828 125.979 38.9495C125.542 39.2161 125.2 39.5948 124.955 40.0855C124.72 40.5655 124.603 41.1415 124.603 41.8135C124.603 42.4748 124.726 43.0508 124.971 43.5415C125.216 44.0321 125.552 44.4108 125.979 44.6775C126.416 44.9441 126.918 45.0775 127.483 45.0775C128.358 45.0775 129.051 44.7841 129.563 44.1975C130.086 43.6108 130.347 42.8161 130.347 41.8135Z" fill="white"/>
</svg>
