<svg width="26" height="25" viewBox="0 0 26 25" fill="none" xmlns="http://www.w3.org/2000/svg">
<path d="M25.0368 12.5001C25.0368 5.66597 19.4966 0.125772 12.6625 0.125772C5.82828 0.125772 0.288086 5.66597 0.288086 12.5001C0.288086 19.3343 5.82828 24.8745 12.6625 24.8745C19.4966 24.8745 25.0368 19.3343 25.0368 12.5001Z" fill="#2A0A1E"/>
<path d="M18.5995 18.7292L13.8987 11.8861L18.3909 6.65723H17.1653L13.3472 11.0833L10.3063 6.65723H6.83314L11.4126 13.3235L6.74902 18.7292H8.01819L11.9673 14.1327L15.1253 18.7292H18.5985H18.5995ZM8.52607 7.54735H9.83783L12.7456 11.7797L12.0152 12.6261L8.52607 7.54735ZM13.2982 12.5857L16.9077 17.8391H15.5959L12.5699 13.4343L13.2993 12.5857H13.2982Z" fill="white"/>
</svg>
