<svg width="25" height="25" viewBox="0 0 25 25" fill="none" xmlns="http://www.w3.org/2000/svg">
<path d="M24.8742 12.5001C24.8742 5.66597 19.334 0.125777 12.4999 0.125777C5.66568 0.125776 0.125488 5.66597 0.125488 12.5001C0.125488 19.3343 5.66568 24.8745 12.4999 24.8745C19.334 24.8745 24.8742 19.3343 24.8742 12.5001Z" fill="url(#paint0_linear_1013_5536)"/>
<path d="M16.4391 20.5724H8.77245C6.52334 20.5724 4.69434 18.7434 4.69434 16.4943V8.82762C4.69434 6.57852 6.52334 4.74951 8.77245 4.74951H16.4391C18.6882 4.74951 20.5172 6.57852 20.5172 8.82762V16.4943C20.5172 18.7434 18.6882 20.5724 16.4391 20.5724ZM8.77245 5.97134C7.19786 5.97134 5.91724 7.25197 5.91724 8.82655V16.4932C5.91724 18.0678 7.19786 19.3484 8.77245 19.3484H16.4391C18.0137 19.3484 19.2943 18.0678 19.2943 16.4932V8.82655C19.2943 7.25197 18.0137 5.97134 16.4391 5.97134H8.77245Z" fill="white"/>
<path d="M12.606 16.4396C10.5216 16.4396 8.82617 14.7442 8.82617 12.6598C8.82617 10.5753 10.5216 8.87988 12.606 8.87988C14.6905 8.87988 16.3859 10.5753 16.3859 12.6598C16.3859 14.7442 14.6905 16.4396 12.606 16.4396ZM12.606 10.1039C11.1961 10.1039 10.0491 11.2509 10.0491 12.6608C10.0491 14.0708 11.1961 15.2178 12.606 15.2178C14.016 15.2178 15.1619 14.0708 15.1619 12.6608C15.1619 11.2509 14.0149 10.1039 12.606 10.1039Z" fill="white"/>
<path d="M17.7175 8.47446C17.7175 9.00681 17.2856 9.43867 16.7533 9.43867C16.2209 9.43867 15.7891 9.00681 15.7891 8.47446C15.7891 7.94212 16.2209 7.51025 16.7533 7.51025C17.2856 7.51025 17.7175 7.94212 17.7175 8.47446Z" fill="white"/>
<defs>
<linearGradient id="paint0_linear_1013_5536" x1="11.8246" y1="23.9879" x2="13.3068" y2="-1.21674" gradientUnits="userSpaceOnUse">
<stop stop-color="#FFCC32"/>
<stop offset="0.4" stop-color="#F15A38"/>
<stop offset="0.88" stop-color="#662D91"/>
</linearGradient>
</defs>
</svg>
